<svg width="25" height="25" viewBox="0 0 25 25" fill="none" xmlns="http://www.w3.org/2000/svg">
<path d="M19.5313 9.76562C19.5313 5.89062 16.375 2.73438 12.5 2.73438C8.625 2.73438 5.46875 5.89062 5.46875 9.76562C3.3125 9.76562 1.5625 11.5156 1.5625 13.6719C1.5625 15.8281 3.3125 17.5781 5.46875 17.5781H5.66406L7.42188 19.9219C7.78906 20.4141 8.375 20.7031 8.98438 20.7031H10.1953C10.375 21.5938 11.1641 22.2656 12.1094 22.2656H12.8906C13.9688 22.2656 14.8438 21.3906 14.8438 20.3125C14.8438 19.2344 13.9688 18.3594 12.8906 18.3594H12.1094C11.1641 18.3594 10.375 19.0312 10.1953 19.9219H8.98438C8.61719 19.9219 8.26563 19.75 8.04688 19.4531L6.64063 17.5781H7.42188C7.64063 17.5781 7.8125 17.4062 7.8125 17.1875V10.5469C9.60156 10.5312 11.0703 10.5234 12.5 9.45313V10.9375C12.5 11.0625 12.5625 11.1797 12.6641 11.2578C12.7656 11.3281 12.8984 11.3516 13.0156 11.3125C13.1172 11.2812 15.5078 10.4609 17.125 8.03125L16.4766 7.60156C15.4453 9.14844 14.0313 9.99219 13.2891 10.3516V8.60156C13.2891 8.44531 13.1953 8.30469 13.0469 8.24219C12.8984 8.17969 12.7344 8.21875 12.625 8.32812C11.2656 9.6875 9.98438 9.75781 7.82031 9.77344H6.25781C6.25 6.32031 9.05469 3.51562 12.5 3.51562C15.9453 3.51562 18.75 6.32031 18.75 9.76562V15.2344H19.5313V10.5469C21.2578 10.5469 22.6563 11.9453 22.6563 13.6719C22.6563 15.3984 21.2578 16.7969 19.5313 16.7969H17.9688V10.1562H17.1875V17.1875C17.1875 17.4062 17.3594 17.5781 17.5781 17.5781H19.5313C21.6875 17.5781 23.4375 15.8281 23.4375 13.6719C23.4375 11.5156 21.6875 9.76562 19.5313 9.76562ZM12.1094 19.1406H12.8906C13.5391 19.1406 14.0625 19.6641 14.0625 20.3125C14.0625 20.9609 13.5391 21.4844 12.8906 21.4844H12.1094C11.4609 21.4844 10.9375 20.9609 10.9375 20.3125C10.9375 19.6641 11.4609 19.1406 12.1094 19.1406ZM7.03125 10.5469V16.7969H5.46875C3.74219 16.7969 2.34375 15.3984 2.34375 13.6719C2.34375 11.9453 3.74219 10.5469 5.46875 10.5469V15.2344H6.25V10.5469H7.03125Z" fill="white"/>
</svg>
