<svg width="386" height="224" viewBox="0 0 386 224" fill="none" xmlns="http://www.w3.org/2000/svg">
<path d="M85.589 188.675L84.679 218.265C69.929 219.775 40.989 218.145 24.699 202.925C6.48902 185.895 5.62902 124.945 53.019 106.795C61.829 103.425 69.439 101.095 73.579 99.645C73.579 99.645 89.319 102.685 99.839 104.865C110.369 107.045 130.769 112.235 136.369 135.245L94.649 186.045L85.589 188.675Z" fill="#4BC3C3"/>
<path d="M49.059 151.535L54.629 153.805C54.629 153.805 48.849 180.615 56.949 184.125C56.949 184.125 47.929 183.115 47.179 178.765C46.429 174.415 45.519 165.695 49.059 151.535Z" fill="#78D2D2"/>
<path d="M71.8291 100.885C27.4491 109.715 12.7391 142.455 13.2391 171.895C13.7391 201.335 33.3591 220.745 84.2491 218.765C84.9691 215.915 82.4791 210.335 85.4091 210.025C4.66908 218.505 2.04907 127.495 77.3191 105.775C75.1191 104.675 72.5391 102.735 73.2491 100.385C72.3091 100.545 71.8291 100.885 71.8291 100.885Z" fill="#78D2D2"/>
<path d="M75.2989 219.715C59.6189 219.715 37.5689 216.325 24.0189 203.655C14.0989 194.385 9.68888 173.355 13.5389 153.645C16.1289 140.405 24.6489 116.585 52.6589 105.855C58.8789 103.475 64.5789 101.585 68.7289 100.215C70.4989 99.625 72.0189 99.125 73.2389 98.695C73.7589 98.505 74.3289 98.785 74.5089 99.305C74.6889 99.825 74.4189 100.395 73.8989 100.575C72.6689 101.005 71.1289 101.515 69.3489 102.105C65.2089 103.475 59.5489 105.355 53.3689 107.715C26.2589 118.095 18.0089 141.185 15.4989 154.015C11.7689 173.085 15.9289 193.345 25.3789 202.175C41.1489 216.915 69.0289 218.665 83.6989 217.335L84.5489 185.845C78.9589 186.115 54.2689 186.975 48.1889 181.855C45.2189 179.355 44.2689 173.535 45.3489 164.555C46.1289 158.055 47.7389 152.155 47.7589 152.095C47.9089 151.565 48.4489 151.255 48.9889 151.395C49.5189 151.545 49.8389 152.095 49.6889 152.625C47.9589 158.925 44.5589 176.175 49.4789 180.325C54.5589 184.595 77.2189 184.275 85.5189 183.785C85.7989 183.765 86.0689 183.865 86.2689 184.065C86.4689 184.255 86.5789 184.525 86.5689 184.815L85.6589 218.275C85.6489 218.775 85.2589 219.195 84.7589 219.245C82.0389 219.525 78.8189 219.695 75.2789 219.695L75.2989 219.715Z" fill="black"/>
<path d="M385.409 83.215L384.179 81.595C379.319 85.225 374.229 88.535 368.989 91.605C363.709 94.605 358.299 97.375 352.739 99.825L353.559 101.685C359.179 99.205 364.659 96.395 370.009 93.365C375.309 90.255 380.479 86.905 385.409 83.215Z" fill="#4BC3C3"/>
<path d="M353.559 101.695L352.739 99.835C351.449 100.455 350.099 100.945 348.789 101.505C347.459 102.035 346.149 102.615 344.809 103.105L345.539 105.005C346.899 104.505 348.219 103.925 349.569 103.385C350.899 102.815 352.259 102.325 353.569 101.695H353.559Z" fill="#41A57D"/>
<path d="M345.539 105.005L344.809 103.105C336.889 106.165 328.709 108.565 320.409 110.335L320.829 112.325C329.239 110.535 337.519 108.105 345.529 105.005H345.539Z" fill="#96CD32"/>
<path d="M225.139 100.005L226.049 98.185L222.169 96.125L220.239 95.095L218.349 93.965L214.589 91.705L210.949 89.255L209.799 90.935L213.499 93.415L217.319 95.715L219.239 96.865L221.199 97.915L225.139 100.005Z" fill="#41A57D"/>
<path d="M247.029 108.755L247.629 106.815C244.909 105.925 242.189 105.075 239.529 104.035L238.819 105.935C241.519 106.995 244.289 107.855 247.039 108.755H247.029Z" fill="white"/>
<path d="M238.809 105.935L239.519 104.035C234.919 102.365 230.459 100.325 226.049 98.195L225.139 100.015C229.609 102.185 234.139 104.245 238.809 105.945V105.935Z" fill="#FFC328"/>
<path d="M270.259 113.945L270.549 111.935C262.789 110.785 255.109 109.115 247.619 106.805L247.019 108.745C254.619 111.085 262.399 112.775 270.259 113.945Z" fill="#2382D2"/>
<path d="M209.799 90.935L210.949 89.255C206.549 86.285 202.389 82.975 198.389 79.495C194.449 75.955 190.759 72.135 187.409 68.045L185.829 69.325C189.259 73.515 193.019 77.415 197.039 81.015C201.099 84.565 205.329 87.925 209.799 90.945V90.935Z" fill="#4BC3C3"/>
<path d="M185.829 69.315L187.409 68.035C183.579 63.305 180.259 58.145 177.779 52.615L175.929 53.455C178.499 59.175 181.909 64.475 185.829 69.315Z" fill="white"/>
<path d="M175.929 53.455L177.779 52.615C175.769 48.185 174.299 43.515 173.589 38.725L171.579 39.025C172.319 44.025 173.849 48.875 175.929 53.455Z" fill="#96CD32"/>
<path d="M320.829 112.325L320.409 110.335C312.229 112.065 303.909 113.135 295.559 113.445L289.289 113.525L283.029 113.245C278.859 113.015 274.689 112.525 270.549 111.945L270.259 113.955C274.459 114.545 278.659 115.035 282.899 115.275L289.259 115.565L295.619 115.485C304.099 115.175 312.539 114.085 320.829 112.335V112.325Z" fill="white"/>
<path d="M171.579 39.025L173.589 38.725C173.119 35.765 173.039 32.775 173.139 29.795C173.359 26.825 173.859 23.885 174.709 21.035C176.509 15.405 179.749 10.145 184.449 6.58503L183.219 4.96503C178.119 8.82503 174.669 14.455 172.769 20.425C171.869 23.435 171.339 26.545 171.109 29.665C170.989 32.795 171.079 35.925 171.569 39.015L171.579 39.025Z" fill="#4BC3C3"/>
<path d="M183.229 4.97502L184.459 6.59502C186.669 4.93502 189.149 3.66502 191.789 2.90502L191.229 0.955017C188.339 1.78502 185.629 3.18502 183.229 4.97502Z" fill="#41A57D"/>
<path d="M191.219 0.945014L191.779 2.89501C193.729 2.26501 195.779 2.09501 197.809 2.02501L199.339 2.11501L200.099 2.15501L200.849 2.26501C201.349 2.33501 201.859 2.41501 202.339 2.54501C202.839 2.64501 203.329 2.77501 203.799 2.94501C207.659 4.14501 210.969 6.80501 213.139 10.255L214.849 9.15501C212.489 5.36501 208.739 2.33501 204.419 1.00501C200.119 -0.344986 195.489 -0.304986 191.199 0.945014H191.219Z" fill="#96CD32"/>
<path d="M178.529 91.885L177.619 90.065C172.419 92.665 166.899 94.645 161.219 95.925L161.669 97.905C167.499 96.585 173.169 94.555 178.529 91.875V91.885Z" fill="#41A57D"/>
<path d="M197.659 77.975L196.219 76.545C194.229 78.565 192.109 80.455 189.889 82.225L191.159 83.815C193.439 82.005 195.629 80.055 197.669 77.975H197.659Z" fill="white"/>
<path d="M191.139 83.805L189.869 82.215C186.079 85.265 181.939 87.865 177.609 90.075L178.519 91.895C182.979 89.625 187.229 86.945 191.129 83.815L191.139 83.805Z" fill="#FFC328"/>
<path d="M211.649 58.605L209.839 57.685C206.299 64.625 201.689 71.025 196.209 76.545L197.649 77.975C203.279 72.295 208.009 65.725 211.639 58.605H211.649Z" fill="#2382D2"/>
<path d="M161.679 97.915L161.229 95.935C156.079 97.105 150.809 97.735 145.519 97.925C140.229 98.135 134.919 97.905 129.629 97.385L129.429 99.405C134.789 99.935 140.199 100.175 145.599 99.955C150.999 99.765 156.399 99.125 161.689 97.915H161.679Z" fill="#4BC3C3"/>
<path d="M129.429 99.405L129.629 97.385C123.539 96.785 117.489 95.745 111.449 94.585L111.059 96.575C117.129 97.735 123.239 98.795 129.419 99.405H129.429Z" fill="white"/>
<path d="M111.059 96.575L111.449 94.585C106.639 93.625 101.829 92.445 97.0291 91.285L96.5491 93.255C101.359 94.415 106.169 95.595 111.059 96.565V96.575Z" fill="#96CD32"/>
<path d="M214.869 9.16501L213.159 10.265C215.329 13.655 216.559 17.645 217.129 21.695C217.709 25.755 217.669 29.925 217.189 34.025C216.229 42.255 213.619 50.285 209.839 57.675L211.649 58.595C215.529 51.005 218.209 42.765 219.209 34.255C219.699 30.005 219.739 25.675 219.139 21.405C218.539 17.145 217.249 12.885 214.869 9.16501Z" fill="white"/>
<path d="M96.5491 93.255L97.0291 91.285C91.0891 89.845 85.1491 88.395 79.1691 87.075C73.1891 85.765 67.1691 84.545 61.0391 83.805L60.8091 85.825C66.8091 86.555 72.7891 87.765 78.7391 89.065C84.6891 90.375 90.6191 91.835 96.5591 93.265L96.5491 93.255Z" fill="#4BC3C3"/>
<path d="M60.7991 85.815L61.0291 83.795C59.5891 83.615 58.1291 83.515 56.6691 83.415C55.1891 83.365 53.7191 83.325 52.2791 83.385L52.3291 85.415C53.7591 85.355 55.1691 85.405 56.5691 85.445C57.9791 85.545 59.3891 85.645 60.7991 85.815Z" fill="#41A57D"/>
<path d="M52.329 85.415L52.279 83.385C43.689 83.625 34.919 84.895 26.929 88.515L27.769 90.365C35.399 86.905 43.899 85.645 52.329 85.415Z" fill="#96CD32"/>
<path d="M16.959 172.315L15.459 173.695C17.509 175.885 19.699 177.975 22.109 179.775C24.479 181.635 27.039 183.235 29.699 184.635L30.639 182.835C28.079 181.495 25.619 179.945 23.349 178.165C21.029 176.435 18.929 174.425 16.959 172.315Z" fill="#41A57D"/>
<path d="M5.33895 152.645L3.41895 153.315C3.85895 154.715 4.44895 156.055 4.98895 157.415C5.58894 158.745 6.18895 160.085 6.86895 161.375L8.66895 160.435C8.00895 159.185 7.42895 157.895 6.84895 156.605C6.32895 155.295 5.75895 153.995 5.32895 152.645H5.33895Z" fill="white"/>
<path d="M8.67891 160.435L6.87891 161.375C9.19891 165.825 12.0689 169.985 15.4689 173.695L16.9689 172.315C13.6989 168.745 10.9289 164.735 8.68891 160.435H8.67891Z" fill="#FFC328"/>
<path d="M2.14896 129.745L0.118964 129.615C-0.401036 137.635 0.798965 145.735 3.41896 153.305L5.33896 152.635C2.79896 145.305 1.63896 137.475 2.14896 129.735V129.745Z" fill="#2382D2"/>
<path d="M30.639 182.835L29.699 184.635C39.369 189.715 50.689 191.555 61.469 189.795L61.149 187.785C50.799 189.475 39.919 187.705 30.639 182.825V182.835Z" fill="#2382D2"/>
<path d="M61.1489 187.785L61.4689 189.795C64.5689 189.305 67.6389 188.445 70.5789 187.465L79.3489 184.525L78.6989 182.595L69.9289 185.535C67.0289 186.505 64.1389 187.315 61.1489 187.785Z" fill="white"/>
<path d="M92.7688 177.88L78.699 182.599L79.3445 184.524L93.4143 179.805L92.7688 177.88Z" fill="#96CD32"/>
<path d="M27.7689 90.365L26.9289 88.515C19.0589 92.055 12.3289 98.005 7.7389 105.285C3.1189 112.565 0.638896 121.075 0.118896 129.615L2.1489 129.745C2.6589 121.505 5.0389 113.335 9.4589 106.375C13.8589 99.425 20.2689 93.745 27.7789 90.375L27.7689 90.365Z" fill="white"/>
<path d="M231.719 145.045C235.689 121.105 247.149 110.395 256.309 106.495C265.459 102.595 275.269 100.515 285.059 98.725L311.829 100.535C319.009 103.875 325.879 107.865 332.349 112.435C337.109 115.795 341.729 119.575 344.789 124.525C348.329 130.255 349.519 137.195 349.319 143.925C349.119 150.655 347.689 157.295 346.129 163.845C345.039 168.435 343.759 173.835 342.589 178.615C338.069 195.505 325.619 211.675 309.129 217.065C292.649 222.455 283.379 223.835 264.859 220.865C265.489 211.675 264.239 190.175 265.489 190.425C272.069 191.745 288.519 191.615 294.359 189.995C301.659 187.965 306.839 181.215 309.799 174.245C312.759 167.275 313.699 159.635 314.609 152.115" fill="#1423DC"/>
<path d="M344.749 124.525C343.939 123.225 343.019 122.005 342.029 120.845C343.189 124.915 343.599 129.245 343.469 133.505C343.269 140.415 341.839 147.215 340.279 153.945C339.189 158.655 337.909 164.185 336.739 169.095C332.219 186.425 319.769 203.005 303.279 208.535C288.679 213.435 279.729 215.095 265.009 213.295C265.009 216.175 264.959 218.825 264.819 220.865C283.339 223.835 292.599 222.455 309.089 217.065C325.569 211.675 338.019 195.515 342.549 178.615C343.719 173.825 344.999 168.425 346.089 163.845C347.649 157.295 349.089 150.655 349.279 143.925C349.479 137.195 348.289 130.255 344.749 124.525Z" fill="#434FE3"/>
<path d="M338.349 116.185C323.479 127.495 317.399 137.585 314.419 146.875C312.509 152.795 313.709 158.685 312.839 164.055C312.209 168.055 310.489 172.175 308.999 175.975C307.649 179.415 303.769 183.565 300.779 186.895C297.649 190.405 293.819 189.225 289.319 189.435C289.309 189.445 279.469 188.835 275.019 187.205C274.619 187.065 273.579 186.945 273.209 186.805C263.609 183.095 255.309 175.645 250.849 164.065C249.359 160.155 248.339 155.845 247.919 151.195C247.439 146.075 247.719 140.515 248.869 134.595C249.469 131.575 250.299 128.455 251.369 125.255C257.919 105.845 263.899 103.945 265.519 102.365C265.519 102.365 278.009 100.035 283.959 99.095C280.109 110.335 280.399 120.615 281.429 127.745C281.799 130.265 284.859 131.325 286.709 129.575C295.919 120.845 308.069 108.405 320.209 107.255C325.649 106.735 338.349 116.215 338.349 116.215V116.185Z" fill="#1423DC"/>
<path d="M234.649 133.815C234.549 133.815 234.449 133.805 234.349 133.765C233.819 133.595 233.529 133.035 233.699 132.515C237.519 120.435 246.449 109.605 255.919 105.575C265.529 101.475 275.909 99.385 284.879 97.745C285.419 97.645 285.939 98.005 286.039 98.545C286.139 99.085 285.779 99.605 285.239 99.705C276.369 101.325 266.129 103.395 256.699 107.405C247.879 111.165 239.199 121.735 235.609 133.115C235.479 133.545 235.079 133.815 234.659 133.815H234.649Z" fill="black"/>
<path d="M248.859 134.585C269.789 142.415 292.069 146.595 314.409 146.885C312.499 152.805 313.569 159.305 312.699 164.675C291.169 164.035 268.029 158.855 247.909 151.195L248.859 134.595V134.585Z" fill="white"/>
<path d="M308.049 177.705C306.789 180.975 302.999 183.725 300.199 186.895C297.259 190.235 291.709 189.235 287.489 189.425C287.489 189.425 287.482 189.425 287.469 189.425C282.679 188.745 256.739 189.425 250.139 165.095C267.349 171.425 289.749 176.855 308.039 177.695L308.049 177.705Z" fill="white"/>
<path d="M212.029 132.815H227.759C241.489 132.815 254.049 140.565 260.199 152.845C265.329 163.075 265.329 175.135 260.199 185.375C254.049 197.655 241.489 205.405 227.759 205.405H212.019V132.825L212.029 132.815Z" fill="#FFC328"/>
<g opacity="0.5">
<path d="M260.199 170.655C254.049 182.935 241.489 190.685 227.759 190.685H212.019V205.395H227.759C241.489 205.395 254.049 197.645 260.199 185.365C263.899 177.985 264.919 169.655 263.279 161.745C262.649 164.805 261.629 167.795 260.199 170.655Z" fill="#EB6E3C"/>
</g>
<path d="M234.839 205.685C234.589 205.685 234.339 205.595 234.149 205.405C233.749 205.025 233.729 204.395 234.109 203.995C242.139 195.545 246.739 182.825 246.739 169.095C246.739 168.545 247.189 168.095 247.739 168.095C248.289 168.095 248.739 168.545 248.739 169.095C248.739 183.325 243.939 196.545 235.559 205.365C235.359 205.575 235.099 205.675 234.829 205.675L234.839 205.685Z" fill="black"/>
<path d="M212.029 205.395C197.389 205.395 185.929 189.455 185.929 169.105C185.929 148.755 197.399 132.815 212.029 132.815C226.659 132.815 238.129 148.755 238.129 169.105C238.129 189.455 226.659 205.395 212.029 205.395Z" fill="#FFC328"/>
<path d="M212.029 206.395C196.829 206.395 184.929 190.015 184.929 169.105C184.929 148.195 196.839 131.815 212.029 131.815C227.219 131.815 239.129 148.195 239.129 169.105C239.129 190.015 227.219 206.395 212.029 206.395ZM212.029 133.815C197.949 133.815 186.929 149.315 186.929 169.105C186.929 188.895 197.959 204.395 212.029 204.395C226.099 204.395 237.129 188.895 237.129 169.105C237.129 149.315 226.099 133.815 212.029 133.815Z" fill="black"/>
<g opacity="0.5">
<path d="M212.029 198.985C222.903 198.985 231.719 185.607 231.719 169.105C231.719 152.603 222.903 139.225 212.029 139.225C201.154 139.225 192.339 152.603 192.339 169.105C192.339 185.607 201.154 198.985 212.029 198.985Z" fill="#EB6E3C"/>
</g>
<path d="M212.029 199.975C200.619 199.975 191.339 186.125 191.339 169.095C191.339 152.065 200.619 138.215 212.029 138.215C223.439 138.215 232.719 152.065 232.719 169.095C232.719 186.125 223.439 199.975 212.029 199.975ZM212.029 140.225C201.719 140.225 193.339 153.175 193.339 169.105C193.339 185.035 201.729 197.985 212.029 197.985C222.329 197.985 230.719 185.035 230.719 169.105C230.719 153.175 222.339 140.225 212.029 140.225Z" fill="black"/>
<path d="M222.049 174.625C224.148 174.625 225.849 172.046 225.849 168.865C225.849 165.684 224.148 163.105 222.049 163.105C219.95 163.105 218.249 165.684 218.249 168.865C218.249 172.046 219.95 174.625 222.049 174.625Z" fill="white"/>
<path d="M222.049 175.625C219.359 175.625 217.249 172.655 217.249 168.865C217.249 165.075 219.359 162.105 222.049 162.105C224.739 162.105 226.849 165.075 226.849 168.865C226.849 172.655 224.739 175.625 222.049 175.625ZM222.049 164.105C220.529 164.105 219.249 166.285 219.249 168.865C219.249 171.445 220.529 173.625 222.049 173.625C223.569 173.625 224.849 171.445 224.849 168.865C224.849 166.285 223.569 164.105 222.049 164.105Z" fill="black"/>
<path d="M204.969 171.545C207.068 171.545 208.769 168.966 208.769 165.785C208.769 162.604 207.068 160.025 204.969 160.025C202.87 160.025 201.169 162.604 201.169 165.785C201.169 168.966 202.87 171.545 204.969 171.545Z" fill="white"/>
<path d="M204.969 172.545C202.279 172.545 200.169 169.575 200.169 165.785C200.169 161.995 202.279 159.025 204.969 159.025C207.659 159.025 209.769 161.995 209.769 165.785C209.769 169.575 207.659 172.545 204.969 172.545ZM204.969 161.025C203.449 161.025 202.169 163.205 202.169 165.785C202.169 168.365 203.449 170.545 204.969 170.545C206.489 170.545 207.769 168.365 207.769 165.785C207.769 163.205 206.489 161.025 204.969 161.025Z" fill="black"/>
<path d="M227.759 206.395H212.019C211.469 206.395 211.019 205.945 211.019 205.395C211.019 204.845 211.469 204.395 212.019 204.395H227.759C241.199 204.395 253.279 196.935 259.309 184.925C264.269 175.025 264.269 163.195 259.309 153.295C253.289 141.285 241.199 133.815 227.759 133.815H212.029C211.479 133.815 211.029 133.365 211.029 132.815C211.029 132.265 211.479 131.815 212.029 131.815H227.759C241.959 131.815 254.729 139.695 261.089 152.395C266.339 162.855 266.339 175.355 261.089 185.815C254.729 198.505 241.959 206.395 227.759 206.395Z" fill="black"/>
<path d="M308.979 74.145C308.979 74.145 316.349 78.245 320.619 71.945C324.889 65.655 319.929 60.625 317.569 59.815C315.209 59.005 309.449 57.835 306.799 62.505L305.819 63.515C305.819 63.515 303.009 56.295 304.799 50.285L304.739 48.415C304.739 48.415 293.769 50.395 289.669 50.755C286.019 51.075 282.189 50.665 274.649 48.325C274.649 48.325 274.369 74.225 274.739 79.875C275.109 85.525 278.639 90.105 283.939 90.575L284.079 100.205C284.079 100.205 289.239 108.055 293.819 108.035C298.399 108.015 308.529 105.145 311.489 103.205C313.089 102.155 312.519 100.915 312.519 100.915L309.979 75.665L308.989 74.145H308.979Z" fill="white"/>
<path d="M297.199 49.815C297.019 49.845 296.829 49.865 296.639 49.895C296.829 49.865 297.019 49.845 297.199 49.815Z" fill="black"/>
<path d="M302.339 48.975L302.169 49.005C302.229 48.995 302.279 48.985 302.339 48.975Z" fill="black"/>
<path d="M295.969 49.995C295.769 50.025 295.559 50.055 295.349 50.075C295.559 50.045 295.759 50.015 295.969 49.995Z" fill="black"/>
<path d="M298.339 49.645C298.199 49.665 298.039 49.685 297.899 49.715C298.049 49.695 298.199 49.675 298.339 49.645Z" fill="black"/>
<path d="M300.689 49.265C300.589 49.285 300.489 49.295 300.389 49.315C300.489 49.295 300.589 49.285 300.689 49.265Z" fill="black"/>
<path d="M299.649 49.445C299.559 49.455 299.479 49.475 299.389 49.485C299.479 49.475 299.559 49.455 299.649 49.445Z" fill="black"/>
<path d="M301.569 49.115C301.479 49.135 301.389 49.145 301.299 49.165L301.569 49.115Z" fill="black"/>
<path d="M293.189 50.355C292.979 50.385 292.779 50.405 292.569 50.435C292.779 50.415 292.989 50.385 293.189 50.355Z" fill="black"/>
<path d="M294.639 50.175C294.429 50.205 294.209 50.235 293.999 50.255C294.219 50.225 294.429 50.195 294.639 50.175Z" fill="black"/>
<path d="M304.749 48.495L304.619 48.525L304.749 48.495Z" fill="white"/>
<path d="M301.299 49.155C301.099 49.185 300.889 49.225 300.679 49.265C300.889 49.225 301.099 49.195 301.299 49.155Z" fill="white"/>
<path d="M302.989 48.845C302.789 48.885 302.569 48.925 302.339 48.965C302.569 48.925 302.789 48.885 302.989 48.845Z" fill="white"/>
<path d="M304.559 48.535C304.209 48.615 303.699 48.715 303.019 48.845C303.699 48.715 304.209 48.605 304.559 48.535Z" fill="white"/>
<path d="M302.169 49.005C301.979 49.045 301.779 49.075 301.569 49.115C301.779 49.075 301.979 49.045 302.169 49.005Z" fill="white"/>
<path d="M293.999 50.255C293.739 50.285 293.459 50.325 293.189 50.355C293.459 50.325 293.729 50.285 293.999 50.255Z" fill="white"/>
<path d="M292.569 50.435C292.089 50.495 291.599 50.545 291.089 50.605C291.599 50.545 292.089 50.495 292.569 50.435Z" fill="white"/>
<path d="M295.349 50.075C295.119 50.105 294.879 50.135 294.639 50.165C294.879 50.135 295.119 50.105 295.349 50.075Z" fill="white"/>
<path d="M296.639 49.895C296.419 49.925 296.189 49.955 295.959 49.995C296.189 49.965 296.409 49.935 296.639 49.895Z" fill="white"/>
<path d="M299.379 49.485C299.049 49.535 298.699 49.595 298.339 49.645C298.699 49.585 299.049 49.535 299.379 49.485Z" fill="white"/>
<path d="M300.389 49.315C300.149 49.355 299.899 49.395 299.649 49.435C299.909 49.395 300.159 49.355 300.389 49.315Z" fill="white"/>
<path d="M297.899 49.715C297.669 49.745 297.439 49.785 297.199 49.815C297.439 49.775 297.669 49.745 297.899 49.715Z" fill="white"/>
<path d="M294.239 59.855C293.679 59.785 293.319 60.035 293.229 62.035C293.129 64.265 293.719 64.635 294.219 64.595C294.719 64.555 295.189 63.855 295.109 62.265C295.029 60.675 294.969 59.935 294.239 59.845V59.855Z" fill="black"/>
<path d="M279.049 60.375C278.499 60.285 278.129 60.525 277.969 62.515C277.799 64.745 278.369 65.135 278.869 65.115C279.369 65.095 279.869 64.405 279.839 62.825C279.819 61.235 279.779 60.495 279.049 60.385V60.375Z" fill="black"/>
<path d="M322.299 36.715C320.849 34.895 318.899 33.495 316.679 32.655C315.559 32.225 314.409 32.045 312.839 31.825C312.589 31.805 312.359 31.825 311.839 31.935C306.919 26.845 301.649 24.125 296.329 24.155C290.879 24.235 287.029 27.155 286.149 28.895C285.649 29.215 285.379 29.425 285.379 29.425C285.379 29.425 276.739 27.555 270.669 32.425C270.149 34.895 269.089 42.655 275.499 44.985C283.159 47.765 301.889 49.555 304.739 48.425C304.919 48.355 304.919 48.385 304.749 48.505C304.979 48.455 305.109 48.425 305.109 48.425C305.109 48.425 304.139 57.995 305.819 62.875C305.819 62.875 308.269 58.445 312.979 58.395C316.939 58.345 318.979 59.885 319.539 60.165C319.359 60.565 319.189 60.445 319.019 60.825C319.249 60.825 319.479 61.225 319.599 61.015C323.219 55.215 328.389 44.355 322.289 36.735L322.299 36.715Z" fill="black"/>
<path d="M289.009 93.005C285.219 93.005 282.399 91.895 280.429 90.665C276.649 88.295 274.019 84.095 273.739 79.945C273.279 73.275 273.629 49.325 273.639 48.315C273.639 47.765 274.089 47.325 274.639 47.325H274.659C275.209 47.325 275.649 47.785 275.649 48.335C275.649 48.585 275.289 73.215 275.739 79.795C275.919 82.475 277.539 86.485 281.499 88.955C284.489 90.825 289.769 92.365 297.969 89.045C298.479 88.845 299.069 89.085 299.269 89.595C299.479 90.105 299.229 90.685 298.719 90.895C294.969 92.405 291.749 92.985 289.019 92.985L289.009 93.005Z" fill="black"/>
<path d="M313.849 76.615C312.059 76.615 310.119 76.225 308.109 75.445C307.599 75.245 307.339 74.665 307.539 74.155C307.739 73.635 308.319 73.385 308.829 73.585C312.619 75.055 316.019 74.955 318.399 73.305C320.219 72.035 321.329 69.885 321.299 67.695C321.249 64.495 320.319 59.095 314.639 59.215C309.799 59.285 307.979 63.405 307.909 63.575C307.749 63.955 307.379 64.205 306.949 64.185C306.539 64.165 306.169 63.895 306.039 63.505C303.849 56.965 303.809 51.605 303.959 49.065C284.179 55.025 266.069 46.115 265.289 45.725C264.799 45.475 264.599 44.875 264.849 44.385C265.099 43.895 265.699 43.695 266.189 43.935C266.379 44.025 285.259 53.295 304.789 46.705C305.119 46.595 305.489 46.665 305.759 46.885C306.029 47.115 306.159 47.465 306.099 47.805C306.099 47.865 305.249 53.345 307.309 60.795C308.569 59.215 310.879 57.255 314.619 57.205C319.919 57.145 323.209 61.035 323.299 67.655C323.339 70.545 321.929 73.275 319.539 74.935C317.929 76.055 315.989 76.615 313.839 76.615H313.849Z" fill="black"/>
<path d="M315.599 71.305C315.459 71.305 315.309 71.275 315.169 71.205L310.769 69.105C310.519 68.985 310.329 68.765 310.249 68.495C310.169 68.225 310.199 67.945 310.339 67.695L313.239 62.665C313.519 62.185 314.129 62.025 314.609 62.295C315.089 62.575 315.249 63.185 314.979 63.665L312.619 67.755L316.039 69.385C316.539 69.625 316.749 70.215 316.509 70.715C316.339 71.075 315.979 71.285 315.609 71.285L315.599 71.305Z" fill="black"/>
<path d="M295.929 109.165C293.569 109.165 291.409 108.775 289.619 108.045C285.959 106.555 283.809 103.785 283.579 100.245L283.459 91.585C283.459 91.035 283.889 90.575 284.449 90.575C284.969 90.575 285.459 91.005 285.459 91.565L285.579 100.175C285.809 103.625 288.319 105.365 290.379 106.205C295.549 108.305 304.349 107.245 311.359 101.205L308.979 75.765C308.929 75.215 309.329 74.725 309.879 74.675C310.429 74.625 310.919 75.025 310.969 75.575L313.399 101.515C313.429 101.835 313.309 102.145 313.069 102.355C307.729 107.135 301.309 109.175 295.929 109.175V109.165Z" fill="black"/>
<path d="M274.449 67.915C274.269 67.915 274.089 67.865 273.919 67.765C273.689 67.625 268.309 64.195 267.699 59.515C267.289 56.345 268.839 54.235 270.019 53.115C266.469 50.625 264.239 47.275 264.509 40.385C264.659 36.605 266.679 33.225 270.219 30.875C275.349 27.455 282.889 26.665 288.969 28.925C289.489 29.115 289.749 29.695 289.559 30.215C289.369 30.735 288.789 30.995 288.269 30.805C282.759 28.765 275.949 29.455 271.329 32.545C269.219 33.955 266.669 36.475 266.509 40.475C266.249 47.195 268.419 49.865 272.259 52.205C272.559 52.385 272.739 52.715 272.739 53.075C272.739 53.425 272.549 53.755 272.239 53.925C272.119 53.995 269.239 55.745 269.689 59.275C270.169 63.015 274.939 66.055 274.989 66.085C275.459 66.375 275.599 66.995 275.299 67.465C275.109 67.765 274.779 67.935 274.449 67.935V67.915Z" fill="black"/>
<path d="M288.669 83.405C286.099 83.405 284.419 81.195 283.959 80.495C283.779 80.225 283.739 79.895 283.859 79.585C283.969 79.285 284.219 79.055 284.529 78.975L293.929 76.405C294.309 76.305 294.719 76.435 294.969 76.735C295.219 77.035 295.269 77.465 295.089 77.815C293.299 81.385 291.229 83.255 288.949 83.395C288.859 83.395 288.769 83.395 288.679 83.395L288.669 83.405ZM286.579 80.485C287.219 81.045 287.999 81.455 288.819 81.405C289.899 81.335 291.009 80.515 292.079 78.985L286.569 80.495L286.579 80.485Z" fill="black"/>
<path d="M299.009 57.155C298.769 57.155 298.519 57.065 298.329 56.885C295.379 54.145 292.229 56.275 292.099 56.365C291.649 56.685 291.019 56.575 290.709 56.115C290.399 55.655 290.509 55.035 290.959 54.725C292.539 53.625 296.399 52.355 299.699 55.415C300.099 55.795 300.129 56.425 299.749 56.825C299.549 57.035 299.289 57.145 299.019 57.145L299.009 57.155Z" fill="black"/>
<path d="M274.759 57.215C274.449 57.215 274.149 57.075 273.949 56.805C273.619 56.365 273.719 55.735 274.159 55.405C274.319 55.285 278.079 52.575 281.499 55.075C281.949 55.405 282.039 56.025 281.709 56.475C281.379 56.925 280.759 57.015 280.309 56.685C278.059 55.035 275.369 56.985 275.339 57.005C275.159 57.135 274.949 57.205 274.749 57.205L274.759 57.215Z" fill="black"/>
<path d="M284.719 75.885C284.579 75.885 284.429 75.855 284.299 75.795C284.139 75.715 283.829 75.615 283.469 75.485C281.409 74.745 280.029 74.185 279.739 73.215C279.549 72.585 279.639 71.985 279.739 71.425C280.569 67.095 282.119 62.975 284.329 59.175C284.609 58.695 285.219 58.535 285.699 58.815C286.179 59.095 286.339 59.705 286.059 60.185C283.959 63.795 282.489 67.705 281.699 71.805C281.649 72.075 281.599 72.335 281.619 72.525C282.049 72.855 283.539 73.395 284.129 73.605C284.569 73.765 284.939 73.895 285.139 73.995C285.639 74.235 285.849 74.825 285.619 75.325C285.449 75.685 285.089 75.905 284.709 75.905L284.719 75.885Z" fill="black"/>
<path d="M265.909 45.595L273.739 48.345L274.009 67.435C274.009 67.435 263.999 59.225 270.819 53.755C270.819 53.755 265.879 47.295 265.909 45.605V45.595Z" fill="black"/>
<path d="M264.049 195.645L262.479 195.315C260.679 193.305 256.619 193.165 253.979 193.715C250.229 194.485 242.749 194.235 238.389 195.375C236.669 195.825 235.519 197.915 236.859 199.095C238.589 200.625 247.599 199.855 249.169 201.065C243.259 205.385 229.819 205.765 223.619 206.295C219.499 206.645 218.839 210.055 222.499 210.785C222.699 210.825 226.889 211.895 228.119 212.255C229.759 212.745 236.339 213.595 238.039 213.505C246.139 213.095 250.499 212.665 258.599 212.255L263.229 211.525" fill="white"/>
<path d="M237.789 214.525C235.679 214.525 229.529 213.735 227.829 213.225C226.619 212.865 222.529 211.825 222.289 211.775C219.839 211.285 219.039 209.755 219.099 208.605C219.179 207.145 220.579 205.555 223.529 205.305C224.339 205.235 225.269 205.165 226.279 205.095C231.999 204.685 241.099 204.035 246.559 201.445C245.569 201.345 244.409 201.275 243.489 201.225C239.679 201.015 237.279 200.815 236.189 199.845C235.409 199.155 235.109 198.175 235.349 197.155C235.659 195.865 236.779 194.765 238.129 194.405C240.659 193.745 244.059 193.545 247.349 193.345C249.829 193.195 252.179 193.055 253.769 192.735C256.789 192.115 260.879 192.385 262.969 194.405L264.239 194.675C264.779 194.795 265.119 195.325 265.009 195.865C264.899 196.405 264.369 196.745 263.819 196.635L262.249 196.305C262.039 196.265 261.849 196.155 261.709 195.995C260.309 194.435 256.779 194.165 254.159 194.705C252.429 195.065 250.019 195.205 247.459 195.355C244.269 195.545 240.959 195.745 238.629 196.355C237.999 196.515 237.419 197.065 237.289 197.635C237.189 198.035 237.369 198.245 237.509 198.365C238.159 198.945 241.429 199.125 243.589 199.245C246.809 199.425 248.829 199.565 249.769 200.295C250.019 200.485 250.159 200.785 250.159 201.095C250.159 201.405 249.999 201.705 249.749 201.885C244.369 205.815 233.569 206.585 226.419 207.095C225.409 207.165 224.489 207.235 223.689 207.305C221.939 207.455 221.109 208.225 221.089 208.725C221.069 209.105 221.549 209.595 222.679 209.825C222.959 209.885 227.199 210.965 228.389 211.325C229.979 211.805 236.419 212.625 237.969 212.535C242.009 212.335 245.169 212.115 248.229 211.915C251.279 211.705 254.439 211.495 258.469 211.295L263.039 210.565C263.589 210.475 264.099 210.855 264.189 211.395C264.279 211.945 263.899 212.455 263.359 212.535L258.729 213.275C258.729 213.275 258.659 213.275 258.619 213.285C254.579 213.485 251.419 213.705 248.359 213.905C245.289 214.115 242.119 214.325 238.059 214.535C237.969 214.535 237.869 214.535 237.759 214.535L237.789 214.525Z" fill="black"/>
<path d="M140.839 167.045C140.319 167.045 139.879 166.645 139.839 166.125C138.999 155.145 137.509 144.685 135.399 135.045C133.369 125.775 127.539 117.755 119.399 113.015C114.319 110.065 108.899 107.795 103.289 106.275C102.929 106.175 102.519 106.085 102.019 105.975C101.369 105.835 100.579 105.655 99.5889 105.395C99.0589 105.255 98.7289 104.715 98.8689 104.175C99.0089 103.645 99.5489 103.315 100.089 103.455C101.049 103.705 101.819 103.875 102.449 104.015C102.979 104.135 103.419 104.225 103.809 104.335C109.589 105.905 115.169 108.235 120.399 111.275C129.019 116.285 135.199 124.795 137.349 134.605C139.479 144.345 140.989 154.895 141.829 165.965C141.869 166.515 141.459 166.995 140.909 167.035C140.879 167.035 140.859 167.035 140.829 167.035L140.839 167.045Z" fill="black"/>
<path d="M146.519 151.355C146.069 151.355 145.659 151.045 145.549 150.595C145.419 150.055 145.749 149.515 146.279 149.385L182.959 140.395C183.489 140.265 184.039 140.595 184.169 141.125C184.299 141.665 183.969 142.205 183.439 142.335L146.759 151.325C146.679 151.345 146.599 151.355 146.519 151.355Z" fill="white"/>
<path d="M151.999 173.705C151.549 173.705 151.139 173.395 151.029 172.945C150.899 172.405 151.229 171.865 151.759 171.735L188.439 162.745C188.969 162.615 189.519 162.945 189.649 163.475C189.779 164.015 189.449 164.555 188.919 164.685L152.239 173.675C152.159 173.695 152.079 173.705 151.999 173.705Z" fill="white"/>
<path d="M68.5589 219.505C68.0489 219.505 67.6089 219.115 67.5689 218.595L67.5189 218.045C66.9189 211.595 66.4389 206.495 67.5689 199.635C67.6589 199.095 68.1689 198.715 68.7189 198.815C69.2589 198.905 69.6289 199.415 69.5389 199.965C68.4489 206.575 68.9189 211.555 69.5089 217.865L69.5589 218.415C69.6089 218.965 69.2089 219.455 68.6589 219.505C68.6289 219.505 68.5989 219.505 68.5689 219.505H68.5589Z" fill="black"/>
<path d="M280.549 222.865C280.459 222.865 280.369 222.855 280.269 222.825C279.739 222.675 279.429 222.115 279.579 221.585C281.159 216.095 281.159 209.455 281.169 202.425V201.065C281.169 200.515 281.619 200.065 282.169 200.065C282.719 200.065 283.169 200.515 283.169 201.065V202.425C283.159 209.595 283.149 216.375 281.499 222.135C281.369 222.575 280.969 222.855 280.539 222.855L280.549 222.865Z" fill="black"/>
<path d="M113.739 53.015C109.239 50.715 100.499 36.155 100.499 36.155C100.499 36.155 98.1688 49.195 76.7888 52.325C76.7888 52.325 84.1488 56.555 80.7788 65.255C80.7788 65.255 78.9488 60.275 73.3788 59.935C67.7988 59.595 65.5788 64.105 65.2788 69.035C64.9788 73.965 69.6688 79.575 78.7888 76.505L76.4988 82.435C64.3888 100.675 44.7688 70.975 64.8388 65.865L64.4688 64.505C61.8888 55.115 60.9888 51.915 61.6488 45.605C62.4988 37.495 69.6288 34.105 77.4888 31.915C80.4188 31.095 84.5988 30.635 88.5588 31.095C104.399 32.925 104.569 42.495 104.569 42.495" fill="black"/>
<path d="M78.2888 76.125C78.2888 76.125 70.7388 79.875 66.7688 73.395C62.7988 66.915 67.4388 61.215 69.8288 60.515C72.2188 59.815 78.5788 59.805 81.0088 64.595L81.4888 65.405C81.4888 65.405 84.1188 59.655 78.4388 53.905L84.9788 53.315C84.9788 53.315 100.699 55.075 104.509 43.235C105.629 39.745 105.949 49.525 113.779 51.915C113.779 51.915 112.859 77.805 112.229 83.425C111.599 89.045 105.159 94.645 99.8388 94.865L99.0688 104.785C99.0688 104.785 96.4488 110.905 91.8688 110.675C87.2888 110.445 79.4488 108.895 74.4488 105.035C72.9388 103.865 73.5288 102.705 73.5288 102.705L77.2288 77.605L78.2888 76.135V76.125Z" fill="white"/>
<path d="M94.8089 62.535C95.3689 62.495 95.7189 62.765 95.7189 64.765C95.7189 66.995 95.1089 67.345 94.6189 67.285C94.1289 67.225 93.6789 66.495 93.8289 64.915C93.9789 63.335 94.0789 62.595 94.8089 62.535Z" fill="black"/>
<path d="M108.829 63.755C109.389 63.695 109.749 63.945 109.809 65.945C109.879 68.175 109.289 68.535 108.789 68.495C108.289 68.455 107.819 67.745 107.919 66.155C108.019 64.565 108.089 63.825 108.819 63.745L108.829 63.755Z" fill="black"/>
<path d="M98.2387 95.915C95.3387 95.915 91.8587 95.235 87.7787 93.365C87.2787 93.135 87.0587 92.545 87.2887 92.035C87.5187 91.535 88.1087 91.315 88.6187 91.545C96.6587 95.225 102.009 93.945 105.069 92.205C109.129 89.915 110.929 85.985 111.239 83.315C111.999 76.755 112.769 52.135 112.779 51.885C112.799 51.335 113.259 50.885 113.809 50.915C114.359 50.935 114.799 51.395 114.779 51.945C114.749 52.965 113.989 76.895 113.229 83.535C112.749 87.665 109.939 91.745 106.049 93.935C104.189 94.985 101.599 95.905 98.2387 95.905V95.915Z" fill="black"/>
<path d="M73.899 78.385C71.509 78.385 69.3989 77.725 67.6989 76.435C65.3789 74.655 64.099 71.875 64.279 68.985C64.449 66.085 65.239 63.645 66.549 61.915C68.159 59.795 70.529 58.775 73.439 58.945C77.109 59.165 79.3089 61.165 80.5189 62.785C81.9589 56.735 78.0689 54.835 78.0189 54.815C77.5889 54.615 77.359 54.145 77.469 53.685C77.579 53.225 78.019 52.895 78.459 52.905C90.469 53.065 96.6889 50.165 99.7689 47.685C103.039 45.065 103.569 42.365 103.569 42.335C103.649 41.925 103.969 41.595 104.389 41.525C104.809 41.455 105.219 41.645 105.429 42.015C105.479 42.095 110.019 49.985 114.199 52.125C114.689 52.375 114.889 52.975 114.639 53.465C114.389 53.955 113.789 54.155 113.289 53.905C109.869 52.165 106.469 47.405 104.779 44.785C103.059 48.185 97.6489 54.515 81.0889 54.895C82.5589 56.745 83.849 60.105 81.719 65.615C81.569 66.005 81.1589 66.285 80.7789 66.255C80.3589 66.255 79.989 65.985 79.849 65.595C79.779 65.425 78.159 61.225 73.329 60.935C71.099 60.795 69.359 61.535 68.159 63.115C67.089 64.525 66.439 66.595 66.289 69.095C66.159 71.285 67.169 73.485 68.929 74.835C71.229 76.595 74.619 76.855 78.479 75.565C78.999 75.395 79.569 75.675 79.749 76.195C79.929 76.715 79.639 77.285 79.119 77.465C77.289 78.075 75.5389 78.385 73.919 78.385H73.899Z" fill="black"/>
<path d="M71.8588 72.995C71.4688 72.995 71.0988 72.765 70.9388 72.385C70.7288 71.875 70.9588 71.295 71.4688 71.075L74.9588 69.605L72.7888 65.415C72.5388 64.925 72.7288 64.325 73.2188 64.065C73.7088 63.815 74.3088 64.005 74.5688 64.495L77.2288 69.645C77.3588 69.895 77.3788 70.185 77.2788 70.445C77.1888 70.705 76.9888 70.915 76.7288 71.025L72.2388 72.915C72.1088 72.965 71.9788 72.995 71.8488 72.995H71.8588Z" fill="black"/>
<path d="M89.6889 112.005C84.1789 112.005 77.8789 109.185 72.8189 104.205C72.5589 103.955 72.4389 103.595 72.4889 103.245L76.1089 77.445C76.1989 76.825 76.7689 76.385 77.3889 76.485C78.0089 76.575 78.4389 77.145 78.3489 77.765L74.8089 102.995C81.5489 109.375 89.2089 110.665 93.5389 109.125C95.4389 108.455 97.7889 106.905 98.1989 103.345L98.7089 94.815C98.7489 94.195 99.2789 93.715 99.9089 93.755C100.529 93.795 101.009 94.325 100.969 94.955L100.449 103.545C100.029 107.285 97.8389 110.005 94.2989 111.265C92.8689 111.775 91.3089 112.015 89.6889 112.015V112.005Z" fill="#1423DC"/>
<path d="M98.3989 60.315C98.1589 60.315 97.9289 60.235 97.7389 60.065C97.6189 59.955 94.7289 57.465 91.4889 59.815C91.0389 60.135 90.4189 60.035 90.0889 59.595C89.7689 59.145 89.8689 58.525 90.3089 58.195C93.9589 55.555 97.6289 57.295 99.0589 58.575C99.4689 58.945 99.4989 59.575 99.1389 59.985C98.9389 60.205 98.6689 60.315 98.3989 60.315Z" fill="black"/>
<path d="M107.179 61.055C106.899 61.055 106.609 60.935 106.419 60.705C106.059 60.285 106.119 59.655 106.539 59.295C109.779 56.555 113.719 59.015 113.889 59.115C114.359 59.415 114.489 60.035 114.199 60.495C113.899 60.955 113.289 61.095 112.819 60.805C112.699 60.725 109.939 59.035 107.839 60.825C107.649 60.985 107.419 61.065 107.189 61.065L107.179 61.055Z" fill="black"/>
<path d="M102.489 78.985C102.099 78.985 101.729 78.755 101.569 78.365C101.359 77.855 101.599 77.265 102.109 77.055C102.349 76.955 102.719 76.855 103.239 76.705C103.789 76.555 104.949 76.225 105.509 75.965C105.279 75.235 104.829 74.265 104.359 73.245C103.159 70.665 101.679 67.465 101.809 64.425C101.829 63.875 102.309 63.445 102.849 63.475C103.399 63.505 103.829 63.965 103.799 64.515C103.679 67.065 105.059 70.025 106.159 72.405C106.809 73.815 107.379 75.025 107.579 76.005C107.879 77.485 105.879 78.045 103.769 78.635C103.369 78.745 103.039 78.835 102.869 78.905C102.739 78.955 102.609 78.985 102.489 78.985Z" fill="black"/>
<path d="M100.349 85.365C99.8989 85.365 99.4289 85.315 98.9389 85.195C97.0089 84.715 95.3789 83.295 94.1089 80.955C93.8489 80.475 94.0189 79.865 94.5089 79.595C94.9989 79.335 95.5989 79.515 95.8689 79.995C96.8589 81.805 98.0489 82.905 99.3989 83.245C101.189 83.695 102.759 82.695 102.779 82.685C103.239 82.385 103.859 82.515 104.159 82.975C104.459 83.435 104.339 84.055 103.879 84.355C103.799 84.405 102.329 85.365 100.359 85.365H100.349Z" fill="black"/>
<path d="M67.5388 89.305C66.3888 89.305 65.3788 89.095 64.5788 88.845C59.2388 87.145 55.0388 81.035 55.2088 75.225C55.3488 70.445 58.3888 66.835 63.5988 65.195L63.4088 64.505C60.8988 55.375 59.9588 51.955 60.6388 45.525C61.5888 36.455 69.9888 32.985 77.1988 30.975C80.6588 30.015 84.9388 29.695 88.6488 30.125C105.169 32.035 105.529 42.075 105.539 42.505C105.539 43.055 105.109 43.515 104.559 43.525C104.009 43.495 103.549 43.095 103.539 42.545C103.529 42.195 103.109 33.815 88.4188 32.115C84.3388 31.645 80.2188 32.215 77.7288 32.905C70.7188 34.855 63.4388 37.905 62.6188 45.735C61.9788 51.785 62.8288 54.855 65.3288 63.975L65.7788 65.615C65.8488 65.875 65.8188 66.155 65.6788 66.385C65.5488 66.615 65.3188 66.785 65.0588 66.855C60.1088 68.115 57.3088 71.105 57.1888 75.285C57.0488 80.185 60.6988 85.525 65.1688 86.945C68.9588 88.155 72.6788 86.355 75.6388 81.905C75.9388 81.445 76.5588 81.315 77.0288 81.625C77.4888 81.935 77.6188 82.555 77.3088 83.015C73.9588 88.055 70.3288 89.325 67.5188 89.325L67.5388 89.305Z" fill="black"/>
<path d="M89.689 111.875C84.219 111.875 77.949 109.065 72.919 104.115C72.689 103.895 72.589 103.575 72.629 103.265L76.249 77.465C76.329 76.915 76.829 76.535 77.379 76.615C77.929 76.695 78.309 77.195 78.229 77.745L74.679 103.045C81.469 109.505 89.209 110.805 93.599 109.255C95.539 108.565 97.929 106.995 98.339 103.365L98.849 94.825C98.879 94.275 99.349 93.855 99.909 93.885C100.459 93.915 100.879 94.395 100.849 94.945L100.329 103.535C99.909 107.215 97.759 109.895 94.259 111.135C92.839 111.635 91.299 111.885 89.689 111.885V111.875Z" fill="black"/>
<path d="M76.7887 54.065C76.2787 54.065 75.8087 53.715 75.6887 53.195C75.5487 52.585 75.9187 51.975 76.5287 51.835C81.7087 50.615 95.6587 46.105 97.9387 39.955C98.5987 38.175 98.2387 36.375 96.8287 34.445C96.4587 33.945 96.5687 33.235 97.0787 32.865C97.5887 32.495 98.2887 32.605 98.6587 33.115C100.519 35.665 100.989 38.235 100.059 40.745C96.8887 49.285 77.8587 53.845 77.0487 54.035C76.9587 54.055 76.8787 54.065 76.7887 54.065Z" fill="black"/>
<path d="M113.539 67.435L115.539 53.905C115.539 53.905 107.879 50.905 104.899 41.865C102.189 33.635 88.5488 31.105 88.5488 31.105C88.5488 31.105 113.429 28.795 116.999 42.115C120.569 55.435 113.539 67.435 113.539 67.435Z" fill="black"/>
<path d="M113.539 68.435C113.429 68.435 113.319 68.415 113.209 68.375C112.759 68.215 112.479 67.755 112.549 67.285L114.439 54.495C112.369 53.475 106.519 49.985 103.949 42.175C101.459 34.615 88.4889 32.115 88.3589 32.085C87.8689 31.995 87.5189 31.555 87.5389 31.055C87.5589 30.555 87.9489 30.155 88.4489 30.105C89.4989 30.005 114.209 27.875 117.949 41.855C121.539 55.255 114.689 67.415 114.389 67.925C114.209 68.245 113.869 68.425 113.519 68.425L113.539 68.435ZM95.0089 32.015C99.2089 33.695 104.249 36.665 105.859 41.555C108.639 50.015 115.839 52.945 115.909 52.975C116.339 53.145 116.599 53.595 116.529 54.055L115.889 58.385C116.989 53.955 117.599 48.245 116.029 42.385C113.809 34.115 102.379 32.305 95.0089 32.015Z" fill="black"/>
<path d="M108.993 142.295L142.52 134.078L155.976 188.984L122.448 197.2C107.296 200.914 91.9749 191.623 88.2617 176.472C84.5485 161.32 93.8386 145.999 108.99 142.285L108.993 142.295Z" fill="#FFC328"/>
<g opacity="0.5">
<path d="M119.019 183.815L152.919 175.455L156.139 188.515L122.619 196.775C107.459 200.515 92.1489 191.255 88.4089 176.095C88.1689 175.125 87.9889 174.155 87.8489 173.185C95.0489 182.205 107.059 186.755 119.009 183.815H119.019Z" fill="#EB6E3C"/>
</g>
<path d="M115.679 199.025C110.399 199.025 105.199 197.585 100.559 194.775C93.8788 190.725 89.1688 184.305 87.3088 176.715C83.4688 161.045 93.0888 145.165 108.769 141.325L142.299 133.105C142.829 132.975 143.379 133.305 143.509 133.835L156.969 188.745C157.029 189.005 156.989 189.275 156.849 189.505C156.709 189.735 156.489 189.895 156.229 189.955L122.699 198.175C120.369 198.745 118.019 199.025 115.679 199.025ZM141.799 135.285L109.239 143.265C94.6388 146.845 85.6688 161.635 89.2488 176.235C90.9788 183.305 95.3688 189.285 101.599 193.055C107.829 196.825 115.149 197.955 122.229 196.225L154.789 188.245L141.809 135.285H141.799Z" fill="black"/>
<path d="M136.909 194.575C136.459 194.575 136.049 194.265 135.939 193.815L127.419 159.045C127.289 158.505 127.619 157.965 128.149 157.835C128.679 157.705 129.229 158.035 129.359 158.565L137.879 193.335C138.009 193.875 137.679 194.415 137.149 194.545C137.069 194.565 136.989 194.575 136.909 194.575Z" fill="black"/>
<path d="M86.179 209.995C98.769 211.165 111.659 208.955 123.149 203.665C126.119 202.295 129.139 200.595 130.789 197.765C131.119 197.195 131.399 196.545 131.309 195.895C131.119 194.465 129.389 193.555 127.949 193.715C118.149 194.775 102.279 195.235 102.279 195.235C102.869 193.105 104.049 191.565 105.929 190.405C107.809 189.245 109.879 188.415 111.699 187.175C112.789 186.435 113.899 185.225 113.509 183.955C113.109 182.655 111.439 182.285 110.079 182.355C106.139 182.575 102.539 184.535 98.779 185.725C94.519 187.075 92.859 185.575 86.429 188.665" fill="white"/>
<path d="M92.849 211.305C90.599 211.305 88.339 211.205 86.089 210.995C85.539 210.945 85.139 210.455 85.189 209.905C85.239 209.355 85.719 208.945 86.279 209.005C98.749 210.165 111.359 208.005 122.739 202.765C125.439 201.525 128.399 199.895 129.929 197.275C130.239 196.745 130.359 196.345 130.319 196.035C130.199 195.175 128.989 194.615 128.059 194.715C118.329 195.765 102.469 196.245 102.309 196.245C101.989 196.235 101.689 196.115 101.489 195.865C101.289 195.615 101.229 195.285 101.309 194.985C101.959 192.645 103.299 190.875 105.389 189.565C106.259 189.025 107.169 188.555 108.059 188.095C109.149 187.535 110.169 187.005 111.129 186.355C111.919 185.825 112.759 184.955 112.549 184.255C112.339 183.565 111.149 183.305 110.129 183.365C107.559 183.505 105.129 184.445 102.569 185.425C101.439 185.865 100.259 186.315 99.079 186.685C97.319 187.245 95.969 187.345 94.659 187.445C92.679 187.595 90.639 187.755 86.859 189.575C86.359 189.815 85.769 189.605 85.529 189.105C85.289 188.605 85.499 188.005 85.999 187.775C90.119 185.795 92.449 185.615 94.509 185.455C95.759 185.355 96.939 185.265 98.479 184.785C99.609 184.425 100.749 183.985 101.859 183.565C104.459 182.565 107.139 181.525 110.029 181.375C111.819 181.275 113.909 181.835 114.469 183.675C114.919 185.145 114.089 186.765 112.259 188.005C111.199 188.725 110.069 189.305 108.979 189.875C108.089 190.335 107.259 190.765 106.449 191.265C105.199 192.045 104.309 192.995 103.729 194.205C107.899 194.065 119.929 193.585 127.839 192.735C129.729 192.545 132.019 193.735 132.299 195.775C132.439 196.795 131.999 197.695 131.649 198.285C129.839 201.395 126.549 203.215 123.569 204.585C113.929 209.025 103.419 211.315 92.849 211.315V211.305Z" fill="black"/>
<path d="M108.989 203.925C108.489 203.925 108.059 203.555 107.999 203.045C107.929 202.495 108.319 201.995 108.869 201.935C110.139 201.775 111.389 201.645 112.609 201.515C117.319 201.015 121.779 200.545 126.359 198.865L126.839 198.695C128.139 198.225 129.619 197.695 130.199 196.725C130.479 196.255 131.099 196.095 131.569 196.375C132.039 196.655 132.199 197.275 131.919 197.745C130.969 199.335 129.059 200.025 127.509 200.575L127.039 200.745C122.229 202.505 117.659 202.995 112.819 203.505C111.599 203.635 110.369 203.765 109.109 203.915C109.069 203.915 109.029 203.915 108.989 203.915V203.925Z" fill="black"/>
<path d="M279.789 223.055C274.789 223.055 269.739 222.655 264.699 221.855C264.209 221.775 263.859 221.355 263.859 220.865C263.859 219.065 263.829 216.555 263.789 213.745C263.479 191.125 263.909 189.845 265.219 189.465C266.749 189.025 275.859 190.345 276.899 190.495C284.059 191.545 288.449 190.325 293.859 188.485C300.399 186.265 305.879 180.935 308.879 173.845C311.809 166.955 312.729 159.345 313.619 151.985C313.689 151.435 314.189 151.045 314.729 151.115C315.279 151.185 315.669 151.685 315.599 152.225C314.689 159.725 313.749 167.475 310.709 174.625C307.479 182.235 301.569 187.975 294.489 190.375C288.989 192.245 284.179 193.585 276.589 192.465C273.069 191.945 267.729 191.295 266.109 191.355C265.499 193.875 265.679 206.675 265.779 213.715C265.809 216.115 265.839 218.295 265.849 220.005C282.789 222.535 299.849 220.415 313.989 214.005C328.219 207.545 336.729 196.555 341.609 178.365C342.559 174.475 343.589 170.165 344.529 166.215L345.149 163.625C346.639 157.355 348.119 150.675 348.319 143.905C348.539 136.565 347.019 130.045 343.939 125.065C340.839 120.055 336.049 116.285 331.769 113.265C325.259 108.665 319.199 105.145 312.099 101.835C311.599 101.605 311.379 101.005 311.619 100.505C311.849 100.005 312.449 99.785 312.949 100.025C320.159 103.385 326.319 106.965 332.929 111.635C337.379 114.775 342.359 118.705 345.649 124.015C348.939 129.335 350.559 136.235 350.329 143.965C350.129 150.925 348.629 157.715 347.109 164.085L346.489 166.675C345.549 170.625 344.519 174.945 343.569 178.865C338.519 197.715 329.669 209.105 314.839 215.835C304.329 220.605 292.259 223.065 279.809 223.065L279.789 223.055Z" fill="black"/>
</svg>
