<svg width="25" height="25" viewBox="0 0 25 25" fill="none" xmlns="http://www.w3.org/2000/svg">
<path d="M22.6554 9.24725L20.5096 18.5537C20.2983 19.4803 19.4774 20.1305 18.5264 20.1305H7.22049V19.3177H18.5264C19.0953 19.3177 19.583 18.9276 19.7131 18.3749L21.745 9.56424H7.952L5.58678 19.8135L5.51363 20.1305H4.1075C3.13216 20.1305 2.34375 19.3421 2.34375 18.3667V10.377H3.15654V18.3667C3.15654 18.8951 3.58732 19.3177 4.1075 19.3177H4.8634L7.22861 9.06844C7.26925 8.88149 7.43181 8.75145 7.62688 8.75145H18.5995V7.12587H6.0013V6.31308H8.67538L7.86259 5.50029H3.15654V8.75145H2.34375V5.09389C2.34375 4.86631 2.52256 4.6875 2.75014 4.6875H8.03328C8.13894 4.6875 8.2446 4.72814 8.31775 4.80942L9.82141 6.31308H18.9978C19.2254 6.31308 19.4042 6.49189 19.4042 6.71947V8.75145H22.249C22.3709 8.75145 22.4928 8.80834 22.5659 8.90588C22.6472 9.00341 22.6716 9.13346 22.6472 9.24725H22.6554ZM8.84607 15.2456H12.0972V14.441H8.84607V15.2456ZM8.84607 16.8712H14.5356V16.0666H8.84607V16.8712Z" fill="white"/>
</svg>
