<svg width="64" height="64" fill="none" xmlns="http://www.w3.org/2000/svg">
  <path d="M46.2 32.6a4.4 4.4 0 0 1 0 6.2 4.4 4.4 0 0 1-4.5 1 4.4 4.4 0 0 1-4.4 4.2h-.5a4.3 4.3 0 0 1-5.7 4.5c0 1.1-.5 2.2-1.3 3a4.4 4.4 0 0 1-6.2 0l-3-3-1.7-1.8-1.8-1.8H8.7v1c0 .5-.4 1-1 1H2a1 1 0 0 1-1-1V27.4h2v17.4h3.8V23.6H1v-2h6.9c.2 0 .5.2.6.4.2.2.3.4.3.7v1h3.8v1.9H8.8V43h8.7c.2 0 .5.1.6.3l2.2 2.1 1.7 1.8 3 3c1 .9 2.5.9 3.4 0 1-1 1-2.6 0-3.6L27 45.1l1.4-1.3 2.4 2.4c1 1 2.5 1 3.5 0s1-2.5 0-3.5l-4.4-4.4 1.4-1.3 4.4 4.3c.9 1 2.5 1 3.4 0 .5-.4.8-1 .8-1.7s-.3-1.3-.8-1.8l-1-.9-3.3-3.4L36 32l3.5 3.4 1 1 .9 1c1 .9 2.5.9 3.4 0 1-1 1-2.6 0-3.5L42 31l1.3-1.3 2.9 2.9Zm16.8-9v-2h-6.8a1 1 0 0 0-1 1v1.6l-11.9-12a1 1 0 0 0-.6-.2H33c-2 0-4.3 0-6.5 2.2L17.8 23a4.4 4.4 0 0 0 3.1 7.5c1.1 0 2.2-.4 3-1.2l4-4a6 6 0 0 1 8.3 0c2.2 2.3 4.5 2.3 6.5 2.3h4.8v-2h-4.8c-1.9 0-3.5 0-5.2-1.6-3-3-8-3-11 0l-4 4c-.9.9-2.4.9-3.4-.1s-1-2.5 0-3.5l8.7-8.7c1.7-1.7 3.3-1.7 5.2-1.7h9.2l13 13V43h-7.7v2h7.8v1c0 .4.4.9 1 .9H62c.6 0 1-.5 1-1V27.5h-2v17.4h-3.8V23.6H63Z" fill="white"/>
</svg>
