<svg width="372" height="257" fill="none" xmlns="http://www.w3.org/2000/svg">
  <g clip-path="url(#a)">
    <path d="M170.5 57v73.5c0 13.1-9.5 23.8-21.3 23.8h-4.4a1.6 1.6 0 0 0-1.4 1l-.1.6v32.7l-.1.4a.7.7 0 0 1-1.1.1L116.4 155a1.5 1.5 0 0 0-1.2-.6H22.4C10.6 154.3 1 143.6 1 130.5V57c0-13 9.6-23.7 21.4-23.7h126.8c11.8 0 21.3 10.6 21.3 23.7ZM294.1 218.6h-45a1.5 1.5 0 0 0-1.2.6l-27.3 36.4a.7.7 0 0 1-.8.2.7.7 0 0 1-.4-.7v-34.7a1.7 1.7 0 0 0-1.6-1.8H213c-4.7 0-9.1-1.5-12.8-4.4a24 24 0 0 1-5.5-5.9c-3-4.4-4.4-9.6-4.4-15V108c0-2.8.4-5.6 1.2-8.3a23.7 23.7 0 0 1 15.5-16c2-.5 4-.8 6-.9h134.7a22.6 22.6 0 0 1 15.9 7.2c4.4 5 6.8 11.4 6.8 18v85.4c0 14-10.2 25.2-22.7 25.2h-5" fill="#1423DC"/>
    <path d="m335.9 157.9-.4 2c-8-1.7-16-2.4-24.1-2.4v-2c8.2 0 16.4.7 24.5 2.4Z" fill="#4BC3C3"/>
    <path d="M311.4 155.5v2l-5.7.1-.1-2 5.8-.1Z" fill="#41A57D"/>
    <path d="M305.6 155.6v2c-5.6.3-11.2 1-16.7 2.1l-.4-2c5.6-1.1 11.3-1.8 17-2Z" fill="#96CD32"/>
    <path d="m227.3 180.3.8 1.8-10.7 5-.9-1.9 10.8-4.9Z" fill="#41A57D"/>
    <path d="m241.5 174 .9 1.8-5.3 2.3-.8-1.9 5.2-2.3Z" fill="#fff"/>
    <path d="m236.3 176.2.8 1.9-9 4-.9-1.8 9-4Z" fill="#FFC328"/>
    <path d="m256.2 167.8.7 2-7.3 2.9-7.2 3-.9-1.8 7.3-3.1 7.4-3Z" fill="#2382D2"/>
    <path d="m216.5 185.2.9 1.9-19.5 8.9-.8-1.9 19.4-8.9Z" fill="#4BC3C3"/>
    <path d="m197 194.1.9 1.9-11.3 5-.8-2 11.3-4.9Z" fill="#fff"/>
    <path d="m185.8 199 .8 2-9.2 3.7-.8-1.9 9.2-3.8Z" fill="#96CD32"/>
    <path d="m288.5 157.7.4 2a207 207 0 0 0-32 10l-.8-1.9c10.5-4.2 21.3-7.6 32.4-10Z" fill="#fff"/>
    <path d="m176.6 202.8.8 2c-3.8 1.4-7.6 3-11.4 4.3l-5.8 2.1-5.8 2-.7-2 5.8-2 5.8-2c3.8-1.3 7.5-2.9 11.3-4.4Z" fill="#4BC3C3"/>
    <path d="m153.7 211.2.7 2-5.5 1.7-.6-2a84 84 0 0 0 5.4-1.7Z" fill="#41A57D"/>
    <path d="m148.3 213 .6 2-8.3 2.3c-2.8.6-5.5 1.5-8.3 2l-.5-2 8.3-2 8.2-2.4Z" fill="#96CD32"/>
    <path d="m67.6 219.3-.4 2-2.9-.5-1.5-.3-1.4-.4-5.8-1.4.6-2 5.7 1.5 1.4.3 1.4.3 2.9.5Z" fill="#41A57D"/>
    <path d="m83 221.4-.2 2h-1.4l-1.5-.2-2.9-.4.3-2 2.8.3 1.4.2H83Z" fill="#fff"/>
    <path d="m77.3 220.8-.3 2-4.9-.6-4.9-.9.4-2 4.8 1 4.9.5Z" fill="#FFC328"/>
    <path d="m98.6 221.7.1 2h-8l-8-.3.2-2 7.9.4h7.8Z" fill="#2382D2"/>
    <path d="m56.2 216.7-.6 2-2.6-.7-2.5-.9-5.1-1.7-1.3-.4-1.3-.5-2.5-1-5-2 .9-1.9 4.9 2 2.5 1 1.2.6 1.2.4 5 1.6 2.6.9 2.6.6Z" fill="#4BC3C3"/>
    <path d="m36.2 209.5-.8 1.9c-2-.8-3.8-1.8-5.6-2.7l-2.8-1.4-2.8-1.4 1-1.8 2.8 1.4 2.7 1.4 5.5 2.6Z" fill="#fff"/>
    <path d="m25.2 204.1-1 1.8-8.6-5 1-1.7 8.6 5Z" fill="#96CD32"/>
    <path d="m131.8 217.3.5 2c-11 2.5-22.3 4-33.6 4.5v-2c11.1-.5 22.2-2 33.1-4.5Z" fill="#fff"/>
    <path d="M323.9 0v2c-9-.2-18 .7-26.6 2.7l-.5-2c8.9-2 18-2.9 27-2.7Z" fill="#4BC3C3"/>
    <path d="m296.8 2.7.5 2c-2 .4-4 1-6 1.6l-.7-2c2-.5 4.1-1.2 6.2-1.6Z" fill="#41A57D"/>
    <path d="m290.6 4.3.6 2a107 107 0 0 0-17.3 7l-1-1.8c5.7-3 11.6-5.3 17.7-7.2Z" fill="#96CD32"/>
    <path d="m216.2 55.6 1.4 1.5a336 336 0 0 1-10 8.5l-1.3-1.6 5-4.1 5-4.3Z" fill="#41A57D"/>
    <path d="m229.1 44.2 1.4 1.5-4.8 4.2-1.3-1.5 4.7-4.2Z" fill="#fff"/>
    <path d="m224.4 48.4 1.4 1.5-8.2 7.2-1.4-1.5 8.2-7.2Z" fill="#FFC328"/>
    <path d="m242.3 32.7 1.3 1.5-13.1 11.5-1.4-1.5 13.2-11.5Z" fill="#2382D2"/>
    <path d="m206.3 64 1.3 1.6a235 235 0 0 1-19 14.1l-1.1-1.7c6.5-4.3 12.8-9 18.8-14Z" fill="#4BC3C3"/>
    <path d="m187.4 78 1.1 1.7-5.7 3.6-6 3.4-1-1.7 6-3.4 5.6-3.6Z" fill="#fff"/>
    <path d="m175.8 85 1 1.7c-3.2 1.7-6.4 3.5-9.8 5l-.8-1.9c3.3-1.4 6.4-3.2 9.6-4.8Z" fill="#96CD32"/>
    <path d="m273 11.5 1 1.8c-5.5 2.8-10.8 6-15.8 9.6-5 3.6-9.9 7.4-14.6 11.3l-1.3-1.5c4.7-4 9.6-7.9 14.7-11.5 5.1-3.6 10.5-6.8 16-9.7Z" fill="#fff"/>
    <path d="m166.1 89.8.9 1.9c-8.2 3.7-16.8 6.8-25.5 9.1l-.6-2a156 156 0 0 0 25.2-9Z" fill="#4BC3C3"/>
    <path d="m141 98.8.5 2-6.2 1.6-.5-2 6.1-1.6Z" fill="#41A57D"/>
    <path d="m134.8 100.3.5 2a239 239 0 0 1-18.6 3.6l-.3-2c6.1-1 12.3-2.1 18.4-3.6Z" fill="#96CD32"/>
    <path d="m45.4 102-.5 2c-4.3-1.1-8.4-2.4-12.6-4l.7-1.9c4 1.5 8.2 2.8 12.4 3.8Z" fill="#41A57D"/>
    <path d="m62.2 105-.2 2c-2.2-.2-4.3-.5-6.4-.9l.4-2 6.2 1Z" fill="#fff"/>
    <path d="m56 104.1-.4 2A146 146 0 0 1 45 104l.5-2c3.5 1 7 1.6 10.6 2.2Z" fill="#FFC328"/>
    <path d="M79.5 106.3v2c-5.9-.1-11.7-.5-17.5-1.3l.2-2c5.7.8 11.5 1.2 17.3 1.3Z" fill="#2382D2"/>
    <path d="m33 98.2-.7 1.9c-3.7-1.4-7.3-3-10.8-5a40.4 40.4 0 0 1-9.8-7l1.5-1.5c2.7 2.7 5.8 5 9.3 6.8 3.4 1.8 7 3.4 10.5 4.8Z" fill="#4BC3C3"/>
    <path d="M13.2 86.6 11.7 88a16 16 0 0 1-2.2-2.8c-.7-1.1-1.2-2.4-1.3-3.7-.1-1.4.4-2.7 1.3-3.8.8-1 1.9-1.8 3-2.3l.9 1.9c-1 .4-1.7 1-2.4 1.7-.5.6-.8 1.5-.8 2.4.2 1 .5 2 1 2.7a14 14 0 0 0 2 2.5Z" fill="#fff"/>
    <path d="m13.4 77.3-.9-1.9c3.7-1.6 7.5-1.7 11.2-1.8v2c-3.6 0-7.2.3-10.3 1.7Z" fill="#96CD32"/>
    <path d="m116.4 104 .3 2a209 209 0 0 1-37.2 2.3v-2c12.3.3 24.7-.5 36.9-2.4ZM220 256.9a1.7 1.7 0 0 0 1.4-.7l27.3-36.4.2-.1.2-.1h45a1 1 0 0 0 0-2h-45a2.5 2.5 0 0 0-2 1l-26.7 35.7v-34a2.7 2.7 0 0 0-2.6-2.7H213a20 20 0 0 1-12.2-4.2c-2-1.5-3.8-3.4-5.2-5.6a26 26 0 0 1-4.3-14.4V108c0-2.7.4-5.4 1.2-8a22.8 22.8 0 0 1 14.8-15.4c1.8-.5 3.7-.8 5.7-.8h134.7a21.5 21.5 0 0 1 15.2 6.9c4.2 4.7 6.5 11 6.5 17.3v85.4c0 13.3-9.8 24.2-21.7 24.2h-5a1 1 0 0 0 0 2h5c13 0 23.7-11.8 23.7-26.2V108a27.5 27.5 0 0 0-10.8-22 22 22 0 0 0-13-4.2H213.1c-2.2 0-4.3.3-6.3 1a24.8 24.8 0 0 0-16.1 16.7c-.9 2.7-1.3 5.6-1.3 8.5v85.4a28 28 0 0 0 4.6 15.5 25 25 0 0 0 5.7 6.1c3.8 3 8.5 4.6 13.4 4.6h4.7a.7.7 0 0 1 .6.8V255a1.8 1.8 0 0 0 1.1 1.7l.6.1Z" fill="#fff"/>
    <path d="M123.5 135.3a1 1 0 0 0 1-.9 49.6 49.6 0 0 0-5.6-30.5 1 1 0 0 0-1-.2 1 1 0 0 0-.5 1.4c4.7 8.9 6.5 19 5 29a1 1 0 0 0 1 1.1Z" fill="#1423DC"/>
    <path d="m46.6 153.2 69 .8a1.4 1.4 0 0 1 1.1.6l25.8 34.3a.7.7 0 0 0 .7.2c.2 0 .3-.1.4-.3v-33.1a1.6 1.6 0 0 1 1.5-1.7h4.5c10-1 11.8-2.8 16.7-10.3-1.8-2-13-15.5-16.9-19.2-6.2-6-11.3-17.4-17.4-23.7-10.5-10.9-21-20.2-35.9-18.5v-1.6h-23l-.1 1.8C63.5 87 55 92 48.4 100a36 36 0 0 0-6.6 13c-4.3 16.5-3.3 27.3 4.8 40Z" fill="#1423DC"/>
    <path d="M143 189.7h.3a1.2 1.2 0 0 0 .8-1.3v-32.7a1 1 0 0 1 1-1.2h4.4c10-1 12.1-2.7 17.1-10.5l.2-.3-.8-1c-3.2-3.8-12.8-15.2-16.3-18.5-3.1-3.1-6-7.7-9-12.1a78.9 78.9 0 0 0-8.4-11.6C122 89.8 111.5 80.4 96.6 81.7v-1.5h-24l-.3 2A68.5 68.5 0 0 0 47.8 100c-3 3.9-5.3 8.4-6.5 13.1-4.4 17-3.1 28 4.8 40.4l.2.3 69.3.8a1 1 0 0 1 .7.4l25.7 34.3a1.1 1.1 0 0 0 1 .5Zm2.1-36.2a2 2 0 0 0-1.9 1.4l-.1.8v32.7l-.1.3-.2-.1-25.7-34.3a2 2 0 0 0-1.5-.8l-68.8-.8c-7.6-12.1-8.9-22.8-4.6-39.4 1.3-4.7 3.5-9 6.5-12.9A67.5 67.5 0 0 1 73 83l.3-.1.2-1.6h22v1.6h.6c14.8-1.6 25.2 7.7 35.4 18.3 3 3 5.7 7.3 8.4 11.5 2.9 4.5 5.8 9 9 12.2 2.4 2.3 7.8 8.5 16.2 18.5l.4.4c-4.5 7-6.2 8.9-16 9.8H145Z" fill="#000"/>
    <path d="M166.5 145a1 1 0 0 0 .7-1.6l-.2-.3c-9.4-11-15.9-18.4-18.3-20.7a68.1 68.1 0 0 1-8.9-11.9 87.6 87.6 0 0 0-7-9.9c-9.1-10.4-20.6-20.8-36.6-19a1 1 0 1 0 .2 2c15.1-1.7 26.1 8.3 34.9 18.4 2.5 3 4.8 6.3 6.8 9.6 2.8 4.4 5.7 8.8 9.2 12.3a459 459 0 0 1 18.2 20.5l.2.3a1 1 0 0 0 .8.3Z" fill="#000"/>
    <path d="M142.6 190.4h.5a1.7 1.7 0 0 0 1.2-1.8V156c0-.3.2-.6.5-.6h4.4c12.3 0 22.3-11.1 22.3-24.8V57c0-13.6-10-24.7-22.3-24.7H22.4C10 32.3 0 43.3 0 57v73.5c0 13.7 10 24.8 22.4 24.8h93l.2.2 25.7 34.2a1.6 1.6 0 0 0 1.3.7Zm6.6-156.1c11.3 0 20.3 10.2 20.3 22.7v73.5c0 12.5-9 22.8-20.3 22.8h-4.4a2.6 2.6 0 0 0-2.4 1.6l-.1 1v31.8l-25.1-33.4a2.4 2.4 0 0 0-2-1H22.4C11 153.3 2 143 2 130.5V57c0-12.5 9.1-22.7 20.4-22.7h126.8Z" fill="#fff"/>
    <path d="M115.6 153.9a1 1 0 0 0 1-.9 357 357 0 0 0 3.4-43.8 1 1 0 0 0-2 .1c.6 8.3-2 34.7-3.3 43.4a1 1 0 0 0 .8 1.1h.1Z" fill="#000"/>
    <path d="M286 139c-22.1.7-27.3 15-40.5 17.2-7 1.1-13.7-1.5-19-6.3a90 90 0 0 1-12.5-13c-3.4 6.1-10.5 9.3-15 14.7a3 3 0 0 0-.8 1.7c0 .6.3 1.1.6 1.6a72.4 72.4 0 0 0 25.7 25c2.7 1.7 5.6 3 8.7 3.8 4.8 1.1 9.8.8 14.7.3 7.4-.6 15-1.4 22-3.8 0 0 .6 24.3 2.7 36.6l1 1.8 17-.7c10.7 1.2 40.6 19.5 49.8 5.1 10-15.7 18.1-64.5-16.1-79.3-6.4-2.8-16.2-3.9-19.2-5" fill="#4BC3C3"/>
    <path d="M270.3 179.8v-4.3a2.6 2.6 0 0 0-2-2.6l-1.3.1c-7.4 2.2-25.2 6.8-33 4-14.5-5-18.5-8.9-34.5-26l-1.3 2.3s4.6 11.8 20.5 22.9c15.9 11 25.4 9.3 51.6 3.6ZM314.2 141.4l-.3 2.2a36 36 0 0 0 26 23.3c7.3 17.8-2.3 46.3-8.5 50.8-7.6 5.5-35.8-10.7-41.9-5.9l-1.8 6.2 5.8.4s25.8 10.7 37.9 9.9c11-.8 21.7-27.2 15.6-57.6-5.2-25.4-32.8-29.3-32.8-29.3Z" fill="#4BC3C3" style="mix-blend-mode:multiply" opacity=".4"/>
    <path d="m183.5 117 4.5 7.5-3-2.5-1.5 2 5 9 6 7 8.5 7.5 5.5-4.5 3-2 2-3.5-3.5-5-1-6.5-3.5-7.5-2.5-2.5-1.5 2 1.5 5v2.5l-4-5.5-6-8-2 1 1 3.5-4-4.5-4.5 5ZM309.8 137.3l-23.2-1-5.4 24 5 22.4 23.6-45.4Z" fill="#fff"/>
    <path d="M60.8 43.2c-.8-9.4 9.3-18 22.5-19s24.5 5.6 25.2 15c.8 9.4-9.3 18-22.4 19-13.2 1.1-24.6-5.6-25.3-15ZM328.2 229.6c4.6 0 8.6-1.1 11.5-4.2a36 36 0 0 0 3.9-6.4 80.2 80.2 0 0 0 6.4-34.2 48.8 48.8 0 0 0-14.6-35.3 40.1 40.1 0 0 0-10.7-6.8c-5.6-2.4-13.1-5.1-16.8-4-3 1-11.9 18.7-12.4 20.6l-8.3 24.7a293.5 293.5 0 0 1-2-26.2v-4.9c.3-9.9 1.7-13.5 1.7-13.5a1 1 0 0 0-.1-1 1 1 0 0 0-.9-.5 44.6 44.6 0 0 0-27.1 10.4c-4.5 3.3-8.3 6-13.5 6.9a22 22 0 0 1-18.2-6 89 89 0 0 1-12.8-13.2 1 1 0 0 0-1.2.4c-1.9 3.4-5 5.8-8.1 8.4a45.2 45.2 0 0 0-6.8 6.2c-.6.6-1 1.4-1 2.3 0 .8.3 1.5.7 2.1a73.2 73.2 0 0 0 26 25.4 35 35 0 0 0 9 3.8 46 46 0 0 0 15 .4c7.2-.6 14.3-1.4 21-3.5.2 5.3.9 24.8 2.7 35.5l.2 1.8a1 1 0 0 0 1 .8h17.8c3 .4 7.2 2 12 3.7 8.3 3 17.8 6.3 25.6 6.3ZM310 140.4c2.9 0 7.8 1.4 14 4.1a39 39 0 0 1 10.2 6.5c18.7 16.5 15.7 49.9 7.7 67.2a33.4 33.4 0 0 1-3.5 5.8c-7 7.4-23.1 1.6-34.9-2.6-5-1.8-9.3-3.4-12.4-3.8H273.7l-.1-1c-2-12.2-2.7-36.3-2.7-36.5a1 1 0 0 0-.4-.8 1 1 0 0 0-1-.2 90.8 90.8 0 0 1-21.7 3.8c-4.5.4-9.6.9-14.4-.3-3-.8-5.8-2-8.5-3.7a71.2 71.2 0 0 1-25.7-25.6c0-.5.3-.8.6-1.1 2-2.2 4-4.2 6.4-6a36 36 0 0 0 7.9-7.6c3.5 4.3 7.4 8.4 11.7 12 6 5.3 13 7.6 19.8 6.5 5.7-1 10-4 14.4-7.2 6-4.3 12.8-9.2 24.6-10-.9 4.3-1.3 8.6-1.3 12.9v1.9l-.1 2.8v4.6a289.4 289.4 0 0 0 3 26.9 1 1 0 0 0 1.6-.4l9.7-29c.5-2.1 9.1-18.3 11-19.1l1.4-.1Z" fill="#000"/>
    <path d="M279.9 81.3c-6.3 11 13.9 11.2 24.1 14.4-8 2.4-41.6-2.2-24.2-14.3" fill="#1423DC"/>
    <path d="m275.5 91.8 6.1 2.8-1 15.5s-7.6-7.3-1.7-11.3c0 0-3.6-5.6-3.4-7Z" fill="#000"/>
    <path d="M308.5 118s5.8 3.9 9.7-1a6.5 6.5 0 0 0-1.7-10c-1.8-.9-6.4-2.2-9 1.4l-.8.7s-1.8-6 0-10.8l.1-1.5s-9 .8-12.4.8c-3 0-6-.6-12-3 0 0-2 21.1-2.2 25.7 0 4.6 2.5 8.6 6.8 9.4l-.6 7.8s3.7 6.8 7.4 7c3.7.4 12.2-1.3 14.7-2.6 1.4-.8 1-1.8 1-1.8l-.3-20.8-.7-1.3ZM305.5 97h-.6.6ZM306.7 96.9l-1.2.1 1.2-.1ZM302.5 97.3h-.9.9Z" fill="#fff"/>
    <path d="M297.5 105.4c-.4-.1-.7 0-1 1.7-.2 1.8.3 2.1.7 2.1.4 0 .8-.5.9-1.8 0-1.3 0-1.9-.6-2ZM285.1 104.7c-.4 0-.7.1-1 1.7-.3 1.8.2 2.2.6 2.2.4 0 .8-.5 1-1.8.1-1.3 0-1.9-.6-2Z" fill="#000"/>
    <path d="M292.4 132.2c2.3 0 4.5-.3 6.7-1a1 1 0 0 0-.6-2c-6.9 2.1-11 .6-13.3-1.1a9.8 9.8 0 0 1-4-7.8 591 591 0 0 1 2-26 1 1 0 0 0-.4-.5 1 1 0 0 0-1.1 0 1 1 0 0 0-.4.7c0 .9-2 20.3-2 25.8a11.9 11.9 0 0 0 4.7 9.3c2.4 1.8 5.4 2.7 8.4 2.6Z" fill="#000"/>
    <path d="M313.2 120.6a8 8 0 0 0 4-1 7.3 7.3 0 0 0 3.6-5.8c.2-2.1-.1-4.2-1-6a6.4 6.4 0 0 0-5.5-3.3 7.7 7.7 0 0 0-6 2.2 27.5 27.5 0 0 1-.1-10.7 1 1 0 0 0-1.2-.8c-16.3 4-31-4.8-31-4.9a1 1 0 0 0-1 1.7c.5.4 14.6 8.9 31 5.5-.4 4-.2 8 .8 11.7a1 1 0 0 0 1.4.7l.4-.4a6 6 0 0 1 5.6-3 4.4 4.4 0 0 1 3.8 2.2c.8 1.5 1.1 3.2.9 5a5.4 5.4 0 0 1-2.7 4.2c-2 1.1-4.7 1-7.6-.5a1 1 0 0 0-1.4 1.2c.1.3.3.5.5.6 1.7.9 3.6 1.4 5.5 1.4Z" fill="#000"/>
    <path d="M314.2 116.4a1 1 0 0 0 .5-1.9l-2.5-1.5 2.1-3a1 1 0 1 0-1.6-1.1l-2.8 3.9a1 1 0 0 0 .4 1.4l3.4 2 .5.2ZM297 145.9a21.9 21.9 0 0 0 13.3-4.8l.1-.5-.2-21.3a1 1 0 0 0-1.7-.7 1 1 0 0 0-.3.7l.3 20.8c-6 4.4-13.2 4.6-17.2 2.6a5.5 5.5 0 0 1-3.4-5.1l.5-7a1 1 0 0 0-.2-.8 1 1 0 0 0-1.8.6l-.5 7a7.5 7.5 0 0 0 4.5 7c2 1 4.3 1.5 6.6 1.5ZM281 110.8a1 1 0 0 0 .8-.4 1 1 0 0 0-.2-1.5s-3.7-2.7-3.8-5.7a4.3 4.3 0 0 1 2.3-4 1 1 0 0 0 .6-.9 1 1 0 0 0-.4-.9c-2.9-2.1-4.5-4.4-3.8-9.7a8.9 8.9 0 0 1 4.6-6.9 12.1 12.1 0 0 1 10.9 0 1 1 0 1 0 .9-1.8 14.1 14.1 0 0 0-12.8 0 10.9 10.9 0 0 0-5.6 8.4c-.7 5.6.8 8.5 3.4 10.8a6.1 6.1 0 0 0-2.2 5c.2 4 4.4 7.2 4.6 7.3l.6.3ZM301.7 103.7c.2 0 .5 0 .7-.3a1 1 0 0 0 0-1.4 5.9 5.9 0 0 0-7.2-1.2 1 1 0 0 0 1 1.8 4 4 0 0 1 4.8.8 1 1 0 0 0 .7.3Z" fill="#000"/>
    <path d="M287 102.2a1 1 0 0 0 .7-.3 1 1 0 0 0 .3-.7 1 1 0 0 0-.4-.7c-2.7-2.4-6-.4-6.2-.3a1 1 0 0 0 1 1.7c.1 0 2.3-1.3 4 0 0 .2.3.3.6.3ZM288 116.7a1 1 0 1 0 0-2 2 2 0 0 1-1.6-.4 1.4 1.4 0 0 1-.1-1.2c0-.4.9-.9 1.5-1.3 1-.6 1.7-1.4 2.2-2.3a8.2 8.2 0 0 0-.2-5.5 1 1 0 0 0-.7-.4 1 1 0 0 0-1 1.3c.4 1.3.4 2.6 0 3.9 0 .4-.8 1-1.4 1.3-1 .7-2 1.5-2.3 2.6a3.2 3.2 0 0 0 .5 2.8 3.9 3.9 0 0 0 3 1.2ZM318.6 108.4a1 1 0 0 0 .9-.4c5.8-7.7 7-14.7 3.4-20a11.8 11.8 0 0 0-4.7-4.1c-1.3-.5-2.5-.9-3.9-1-3.8-4.6-8-7.1-12.5-7.5-4-.3-8 2.4-9.5 3.4-1.8-.7-7.7-2.6-12.6.6a1 1 0 0 0-.4 1 1 1 0 0 0 1.2.9c.1 0 .3 0 .4-.2 4.7-3.1 11-.2 11.1-.2a1 1 0 0 0 1.1-.1s4.6-3.6 8.6-3.3c4 .3 7.8 2.7 11.3 7a1 1 0 0 0 1 .3l3.3.9c1.5.7 2.9 1.9 3.8 3.3 4 5.8.3 12.9-3.3 17.8a1 1 0 0 0-.2.7 1 1 0 0 0 .4.7c.2.2.4.2.6.2ZM291 123.7a7.8 7.8 0 0 0 6-3.5 1 1 0 0 0-.2-1.4c-.3-.2-.5-.2-.8-.2a1 1 0 0 0-.6.5 5 5 0 0 1-7.1 1.8 1 1 0 0 0-1 1.7 7 7 0 0 0 3.6 1.1Z" fill="#000"/>
    <path d="M322 88.5a10.7 10.7 0 0 0-7.4-4.7h-.8c-3.7-4.4-7.8-7-12-7.4-4.4-.3-7.9 1.8-8.7 3.2l-.6.4s-7.6-2.2-12.9 1.3c-2.9 6.8 1.3 8.8 3.7 10a98.6 98.6 0 0 0 24 4.7s-1.6 8.5-.5 12.6c0 0 2.3-3.4 6.1-3.2 1.9.1 3.7.8 5.2 2-.2.2-.3.1-.5.4.2 0 .4.4.5.2 3.4-4.4 8.4-12.9 3.9-19.5Z" fill="#000"/>
    <path d="M297.2 203.3c1.7-.8-3.3.4-5.2.8-1.6.2-3.2.7-4.6 1.5-2.2 1.1-4 3-5 5.1-.8 2.6-1.2 5.2-1.2 7.9h11.6c-3.7-1.8-5.4-10.8 4.4-15.3Z" fill="#fff"/>
    <path d="M292.8 219.6a1 1 0 0 0 .4-1.9c-1.1-.6-2.3-2.4-2.3-4.9 0-3.5 2.5-6.7 6.7-8.6 1-.5 1-1 .9-1.5-.3-1-.9-.8-4.9 0l-1.7.4c-1.8.3-3.5.8-5 1.7a12 12 0 0 0-5.4 5.6 24.1 24.1 0 0 0-1.2 8.6c0 .1 0 .2.2.3.2.2.4.3.7.3h11.6Zm-4.5-2h-6c0-2.2.4-4.4 1.2-6.5 1-2 2.5-3.6 4.4-4.6 1.4-.8 2.9-1.2 4.4-1.4l.5-.1a10.6 10.6 0 0 0-3.9 7.8c0 1.7.5 3.3 1.4 4.7h-2ZM194 126.8a1 1 0 0 0 .9-.7v-.7c-1-1.9-7.6-10.5-7.8-10.8a1 1 0 0 0-1.6 1.2 193.4 193.4 0 0 1 8 10.9l.4.1ZM191 130c.3 0 .5 0 .7-.2a1 1 0 0 0 .1-1.4l-3.3-4.3a1 1 0 0 0-.6-.4 1 1 0 0 0-1.1 1.3c0 .1 0 .2.2.3l3.3 4.3a1 1 0 0 0 .8.4ZM197.8 125.2a1 1 0 0 0 1-1l-.1-.4c-.8-1.8-5.1-7.3-5.6-8a1 1 0 0 0-1.6 1.2 74.9 74.9 0 0 1 5.7 8c.2.2.4.2.6.2Z" fill="#000"/>
    <path d="M296.9 153.6c.2 5.5-12.7 6.8-10.7-2l7.6-6.8 3 8.8Z" fill="#FFC328"/>
    <path d="M291 159c1.4 0 2.8-.4 4-1a4.8 4.8 0 0 0 2.9-4.7l-3.1-8.9a1 1 0 0 0-1.6-.4l-7.7 6.8a1 1 0 0 0-.3.6c-.9 3.6.7 5.5 1.7 6.3 1.2.9 2.7 1.3 4.2 1.3Zm4.9-5.2a3 3 0 0 1-1.8 2.4 5.9 5.9 0 0 1-5.9 0c-1-1-1.4-2.3-1.1-4l6.2-5.7 2.6 7.3Z" fill="#000"/>
    <path d="M292.7 167.8c.8-1.6 1.1-3.3 1-5 0-5.1-6.3-6-8.2-3.4-1.3 1.8-1.5 5-1.3 6.9l2.2 18.5 6.3-17" fill="#FFC328"/>
    <path d="M286.4 185.8a1 1 0 0 0 1-.6l6.2-17a12 12 0 0 0 1.2-5.4 5.6 5.6 0 0 0-4-5.5c-2.3-.7-4.9 0-6 1.5-1.4 1.9-1.7 5.1-1.6 7.5l2.2 18.6a1 1 0 0 0 1 .9Zm2.4-26.8 1.3.2a3.6 3.6 0 0 1 2.7 3.6 9.7 9.7 0 0 1-1 4.7l-5 13.1-1.6-14.4c-.2-1.9 0-4.7 1.1-6.2a3 3 0 0 1 2.5-1Z" fill="#000"/>
    <path d="m314.2 140.3-1.7 15.4-7.6 3.7.5 5.8-18.5 24c1.9-17 12.3-37.5 22.9-51.9l4.4 3Z" fill="#fff"/>
    <path d="M287 189.2c-10.7-14-12.3-33-12.3-33l3.8-4-3-5.8 7.6-7.6 3.5-2.5c-4.3 17.3-1.8 35.2.4 53M144.9 117.3a5.5 5.5 0 0 0 2.8-3 .9.9 0 0 0 0-.8l-.3-.3c-.6-.3-1.3-.4-1.9-.2-1.3.3-2.2 1.5-3 2.5-1.2 1.2-2.5 2.3-4 3" fill="#fff"/>
    <path d="m138.6 119.5.5-.1c1.5-.8 3-1.9 4-3.2l.5-.5a5 5 0 0 1 2.2-1.7h1c-.5 1.1-1.3 2-2.3 2.4a1 1 0 0 0-.6 1 1 1 0 0 0 .3.6 1 1 0 0 0 1 .2c1.6-.6 2.9-2 3.5-3.5a1.9 1.9 0 0 0 0-1.7l-.8-.7c-.8-.4-1.7-.5-2.6-.3a6.5 6.5 0 0 0-3.2 2.4l-.4.5c-1 1-2.2 2-3.5 2.7a1 1 0 0 0 .4 1.9Z" fill="#000"/>
    <path d="M107.6 151C36 204 15.2 99.7 72 83.7Z" fill="#1423DC"/>
    <path d="M71 166.9c11 0 23.7-5.1 37.2-15a1 1 0 0 0 .2-1.5 1 1 0 0 0-1-.4 1 1 0 0 0-.4.2c-19.7 14.6-37.7 18.5-50.6 10.9-11.5-6.8-17.8-22.4-15.6-39a43.3 43.3 0 0 1 31.6-37.5 1 1 0 0 0-.5-1.9 45.1 45.1 0 0 0-33 39.2c-2.3 17.3 4.4 33.7 16.5 40.9 4.7 2.7 10.1 4.1 15.5 4Z" fill="#000"/>
    <path d="m213.2 149.8-10.8 10.5Z" fill="#96CD32"/>
    <path d="M202.4 161.3c.3 0 .5 0 .7-.2l10.8-10.6a1 1 0 1 0-1.4-1.4l-10.8 10.5a1 1 0 0 0-.2 1 1 1 0 0 0 .9.7Z" fill="#000"/>
    <path d="m97.8 82.3 2.6 29.6s-22-22.7-32.6-26.8" fill="#fff"/>
    <path d="m100.4 113 .4-.2a1 1 0 0 0 .6-1l-2.6-29.6a1 1 0 1 0-2 .2l2.3 26.8c-5.6-5.7-22-21.6-31-25a1 1 0 1 0-.7 1.9c10.4 4 32 26.3 32.3 26.5.2.2.4.3.7.3ZM62.2 45.5s.3 8.2 2.8 12a152 152 0 0 0 9 10.9l3.7-18 1.6-8.5" fill="#000"/>
    <path d="M74 69.4h.2a1 1 0 0 0 .7-.8l3.8-18 1.6-8.5a1 1 0 0 0-2-.4l-1.6 8.5-3.3 16c-2-2.3-5.8-6.6-7.6-9.3-2.3-3.5-2.6-11.3-2.6-11.4a1 1 0 0 0-2 0c0 .4.3 8.5 3 12.5A140.8 140.8 0 0 0 74 69.4Z" fill="#000"/>
    <path d="M96.5 49.9c-.7 1.4-.8 3-.5 4.5a4.4 4.4 0 0 0 3 3.2c.4.1 1 .3.8.7 0 .2 0 .3-.2.4l-3 2.4" fill="#fff"/>
    <path d="m96.5 62 .6-.1.6-.5 2.5-2c.3-.2.5-.6.6-1 0-.5 0-1.4-1.6-1.8a3.5 3.5 0 0 1-2.3-2.5c-.2-1.3 0-2.7.5-3.9a1 1 0 1 0-1.9-.7c-.7 1.6-.9 3.4-.5 5.1a5.5 5.5 0 0 0 3.3 3.8l-1.8 1.3-.6.5a1 1 0 0 0 .6 1.8Z" fill="#1423DC"/>
    <path d="M75.7 61.3s-6 3.3-9.5-1.9a6.5 6.5 0 0 1 2.6-9.8c2-.7 6.7-1.6 8.8 2.3l.8.8s2.3-5.9 1-10.8v-4s9.4 2.4 12.7 2.7c3 .3 5.2 0 12 0 0 0-.1 21.2-.5 25.8-.4 4.6-3.3 8.3-7.6 8.6l-.3 7.9s-4.3 6.4-8 6.3c-3.7 0-12-2.5-14.3-4.1-1.3-1-.9-2-.9-2L75 62.7l.8-1.3Z" fill="#fff"/>
    <path d="M88.8 49.8c.5 0 .7.2.8 1.8 0 1.8-.4 2.1-.8 2.1s-.8-.6-.7-1.9c0-1.3.1-1.9.7-2ZM100.3 50.4c.4 0 .7.2.8 1.8.2 1.8-.3 2.1-.7 2.1-.4 0-.8-.6-.8-1.9 0-1.3 0-1.9.7-2Z" fill="#000"/>
    <path d="M92 77.2a13 13 0 0 0 7-1.9 12 12 0 0 0 5.6-8.8c.4-5.5.4-25.7.4-26.5a1 1 0 0 0-1-1v1.6c-.5 0-1-1.1-1-.6 0 .2 0 21-.4 26.3a9.9 9.9 0 0 1-4.7 7.3c-2.4 1.5-6.7 2.6-13.3-.1a1 1 0 1 0-.8 1.8c2.6 1.2 5.4 1.8 8.2 1.9ZM71.8 63.5c1.6 0 3.2-.3 4.6-1a1 1 0 1 0-.7-1.8c-3 1.2-5.7 1-7.6-.3a5.4 5.4 0 0 1-2.2-4.5c0-2.5.8-6.8 5.3-6.6a6 6 0 0 1 5.3 3.5 1 1 0 0 0 1 .6 1 1 0 0 0 .9-.7c1.5-4.9 1.9-10.1 1-15.2a1 1 0 0 0-2 .3s1.3 6.9-.3 12.3a7.7 7.7 0 0 0-5.9-2.8c-4.4-.2-7.2 3-7.3 8.6a7.3 7.3 0 0 0 3 6.1c1.5 1 3.2 1.5 5 1.5Z" fill="#000"/>
    <path d="M70.3 59.1h.4l3.6-1.7a1 1 0 0 0 .6-.6 1 1 0 0 0-.1-.8l-2.3-4.1a1 1 0 0 0-1.8 1l1.8 3.1-2.6 1.2a1 1 0 0 0 .4 2ZM86.2 90.3c1.7 0 3.4-.3 5-.9a7.5 7.5 0 0 0 5.1-6.4l.2-7.1a1 1 0 1 0-2 0l-.2 7a5.6 5.6 0 0 1-3.8 4.7c-4.2 1.6-11.3.7-16.9-4.3l2.2-20.6a1 1 0 1 0-2-.2l-2.2 21.1a1 1 0 0 0 .3.9c3.9 3.6 9 5.7 14.3 5.8ZM85.5 47.7c.2 0 .4 0 .6-.2A3.9 3.9 0 0 1 91 47a1 1 0 1 0 1.2-1.6 5.9 5.9 0 0 0-7.4.5 1 1 0 0 0 .7 1.7ZM103.8 48a1 1 0 0 0 1-1.1 1 1 0 0 0-.4-.7c-.1 0-3.3-2.4-6.2-.3a1 1 0 1 0 1.2 1.6c1.7-1.2 3.8.3 3.8.3.2.2.4.2.6.2ZM96.5 62l.6-.1c3.6-2.7 3.6-3.1 3.7-3.4 0-.4 0-.7-3.4-9a1 1 0 1 0-1.9.7l3.2 7.8a68.5 68.5 0 0 1-3.2 2.7 1 1 0 0 0 1 1.3ZM93.9 69.4c2.8 0 4.6-2.6 4.7-2.7a1 1 0 0 0 .1-1 1 1 0 0 0-.7-.6l-9.3-2a1 1 0 0 0-1 1.4c1.8 3.2 3.8 4.8 6 5l.2-.1Zm2-2.7c-.7.4-1.4.7-2.2.7a4.4 4.4 0 0 1-3-1.9l5.1 1.2Z" fill="#000"/>
    <path d="M107.7 41.6c.1 2.2-2.2 10.6-3.7 11.3l.7-10.4 3-.9Z" fill="#000"/>
    <path d="m104 53.9.4-.1c2.2-1 4.4-10.3 4.3-12.2a1 1 0 0 0-.8-1 1 1 0 0 0-.5 0l-3 1a1 1 0 0 0-.7.9l-.7 10.3a1 1 0 0 0 .4.9l.6.2Zm2.6-10.9c-.3 1.7-.7 3.4-1.3 5l.4-4.7 1-.3ZM295.2 220.6a1 1 0 0 0 1-.8 1 1 0 0 0-.7-1.1c-2.3-1-3.8-2.2-4.3-3.9-.8-2.2.5-4.7 1.3-6a11.7 11.7 0 0 1 7.3-5.3c2.4-.3 4.7-.2 7 .3l3.3.5c3.8.3 8.5-.6 10.4-4.2.5-1.2.9-2.6 1-4 .8-5.6 1.4-11.4 1.8-17a1 1 0 0 0-1-1.1 1 1 0 0 0-1 .9c-.4 5.7-1 11.4-1.8 17-.1 1.1-.4 2.2-.9 3.3-1.4 2.7-5.2 3.4-8.4 3-1 0-2-.2-3-.4-2.6-.6-5.3-.7-7.8-.3a13.7 13.7 0 0 0-8.6 6.2c-1 1.6-2.6 4.7-1.6 7.8.7 2.2 2.6 3.9 5.5 5l.5.1Z" fill="#000"/>
    <path d="M72.9 77.8 62.2 88.2s17.2 3.5 28.8 14.6L73 77.8Z" fill="#96CD32"/>
    <path d="M91.1 103.8c.2 0 .4 0 .6-.2.4-.3.6-.5.1-1.4l-.1-.1-2.7-3.7-6.2-8.6-9.2-12.5a1 1 0 0 0-1-.4 1 1 0 0 0-.5.2L61.5 87.5a1 1 0 0 0 .5 1.7c.1 0 17 3.6 28.3 14.3.2.2.5.3.8.3ZM72.8 79.3l13 18C79.4 93 72 89.6 64.3 87.7l8.6-8.4Z" fill="#000"/>
    <path d="m95.9 78.5 10 4.3s-6 10-6 21.4l-4-25.7Z" fill="#96CD32"/>
    <path d="M99.8 105.2a1 1 0 0 0 1-1 47.2 47.2 0 0 1 6-21.3 1 1 0 0 0-.2-.8 1 1 0 0 0-.4-.2l-10-4.3a1 1 0 0 0-1.3.6v.5l3.9 25.6a1 1 0 0 0 1 .9Zm4.7-22a51.7 51.7 0 0 0-4.8 13.3l-2.5-16.3 7.3 3Z" fill="#000"/>
    <path d="M142 190.1a1 1 0 0 0 .9-1.6l-25.7-34.2a2.4 2.4 0 0 0-2-1h-6a1 1 0 0 0 0 2h6a.5.5 0 0 1 .3.2l25.7 34.2a1 1 0 0 0 .9.4Z" fill="#fff"/>
    <path d="m314.2 140.3-1.7 15.4-7.6 3.7.5 5.8-18.5 24c1.9-17 12.3-37.5 22.9-51.9l4.4 3Z" fill="#4BC3C3"/>
    <path d="M287 189.2c-10.7-14-12.3-33-12.3-33l3.8-4-3-5.8 7.6-7.6 3.5-2.5c-4.3 17.3-1.8 35.2.4 53" fill="#4BC3C3"/>
    <path d="M287 190.2a1 1 0 0 0 .7-.4l18.5-24c.2-.2.3-.4.2-.7l-.4-5.1 7-3.4a1 1 0 0 0 .5-.8l1.7-15.4a1 1 0 0 0-.4-.9l-4.4-3a1 1 0 0 0-1.4.2c-9.9 13.5-21 34.3-23 52.4a1 1 0 0 0 .6 1l.3.1Zm17.5-25.3-16 20.7a125 125 0 0 1 21.5-46.9l3.1 2.1-1.5 14.2-7.1 3.5a1 1 0 0 0-.6 1l.6 5.4Z" fill="#000"/>
    <path d="M287 190.2h.3a1 1 0 0 0 .6-1.1l-.3-3c-2-16.4-4.2-33.4 0-49.5a1 1 0 0 0-1-1.2 1 1 0 0 0-.6.1l-3.5 2.5-.2.1-7.6 7.7a1 1 0 0 0-.2 1.2l2.7 5-3.3 3.6a1 1 0 0 0-.2.7 72.6 72.6 0 0 0 12.8 33.8l.4.1Zm-2-51.5a141 141 0 0 0 .4 46.6 74.8 74.8 0 0 1-9.7-28.7l3.5-3.8a1 1 0 0 0 .1-1.1l-2.7-5 7-7 1.4-1Z" fill="#000"/>
    <path d="M190.4 171.2v22.2c0 5.3 1.5 10.5 4.4 15a24 24 0 0 0 5.5 5.8 21 21 0 0 0 12.8 4.4h46.8l-5.7-47.4h-63.8Z" fill="#96CD32"/>
    <path d="M213 219.6h47a1 1 0 0 0 .7-.3 1 1 0 0 0 .2-.8l-5.7-47.5a1 1 0 0 0-1-.8h-63.8a1 1 0 0 0-1 1v22.1A28 28 0 0 0 194 209a25 25 0 0 0 5.7 6.1c3.8 3 8.5 4.6 13.4 4.6Zm45.8-2h-45.7c-4.4 0-8.7-1.5-12.2-4.2a23 23 0 0 1-5.3-5.6 26 26 0 0 1-4.2-14.4v-21.2h61.9l5.5 45.4Z" fill="#000"/>
    <path d="M212.5 210.7H259a1 1 0 1 0 0-2h-46.4a1 1 0 0 0 0 2Z" fill="#000"/>
    <path d="M220 256.9a1.7 1.7 0 0 0 1.4-.7l27.3-36.4.2-.1.2-.1H290a1 1 0 1 0 0-2h-40.8a2.5 2.5 0 0 0-2 1l-26.7 35.7v-34a2.7 2.7 0 0 0-2.6-2.7H213a20 20 0 0 1-12.1-4.2c-2.1-1.5-3.9-3.4-5.3-5.6a26 26 0 0 1-4.3-14.4v-52.8a1 1 0 0 0-1.7-.7 1 1 0 0 0-.3.7v52.8a28 28 0 0 0 4.6 15.5 25 25 0 0 0 5.7 6.1c3.9 3 8.6 4.6 13.4 4.6h4.7a.7.7 0 0 1 .6.8V255a1.8 1.8 0 0 0 1.2 1.7l.5.1Z" fill="#fff"/>
    <path d="m23.6 75.6.1-2c10 .4 20 1.9 29.8 4.3l-.6 2a142 142 0 0 0-29.3-4.3Z" fill="#4BC3C3"/>
    <path d="m53 80 .4-2c2.3.5 4.6 1 6.9 1.8l-.6 2c-2.2-.8-4.5-1.3-6.8-1.9Z" fill="#41A57D"/>
    <path d="m59.7 81.8.6-2 5 1.7 2.5.8 2.4 1 4.9 2 4.8 2-.8 2c-1.6-.8-3.2-1.6-4.8-2.2l-4.8-1.9-2.4-1-2.5-.8-5-1.6ZM147.1 130l11.6 8.6-1.2 1.6-11.6-8.6 1.2-1.6Z" fill="#41A57D"/>
    <path d="m130.5 120.3 1.2-1.7 5.7 4.2-1.2 1.6-5.7-4.1Z" fill="#fff"/>
    <path d="m136.2 124.4 1.2-1.6 9.7 7.2-1.2 1.6-9.7-7.2Z" fill="#FFC328"/>
    <path d="m114.7 109.3 1.1-1.7a543 543 0 0 1 16 11l-1.3 1.7c-5.2-3.8-10.4-7.4-15.8-11Z" fill="#2382D2"/>
    <path d="m157.5 140.2 1.2-1.6c7 5.2 14 10.4 21.1 15.3l-1.1 1.7c-7.2-5-14.2-10.2-21.2-15.4Z" fill="#4BC3C3"/>
    <path d="m178.7 155.6 1.2-1.7c4 2.9 8.2 5.7 12.4 8.4l-1 1.7c-4.3-2.7-8.5-5.6-12.6-8.4Z" fill="#fff"/>
    <path d="m191.2 164 1.1-1.7c3.4 2.3 6.8 4.3 10.3 6.4l-1 1.7c-3.5-2-7-4.1-10.4-6.4Z" fill="#96CD32"/>
    <path d="m79 89.2.9-1.9a251.6 251.6 0 0 1 36 20.3l-1.1 1.7A249.5 249.5 0 0 0 79 89.2Z" fill="#2382D2"/>
    <path d="m201.5 170.4 1-1.7c8.6 5 17.4 9.6 26.5 13.5l-.8 1.9c-9.2-4-18-8.6-26.7-13.7Z" fill="#4BC3C3"/>
    <path d="m228.2 184.1.8-1.9 6.5 2.7-.7 1.9-6.6-2.7Z" fill="#41A57D"/>
    <path d="m234.8 186.8.7-2c1.6.7 3.3 1.2 5 1.8l2.4.9 2.4.7 5 1.5 2.5.7 2.5.6-.4 2-2.6-.6-2.5-.7-5-1.5c-1-.2-1.7-.5-2.6-.8l-2.5-.9-5-1.7Z" fill="#fff"/>
    <path d="m334.3 194-.4-2c4.7-.9 9.2-2.2 13.6-4l.8 2a81.9 81.9 0 0 1-14 4Z" fill="#41A57D"/>
    <path d="m315.3 196.7-.2-2 3.5-.3 3.5-.4.2 2-3.5.4-3.5.3Z" fill="#fff"/>
    <path d="m322.3 196-.2-2c4-.4 8-1 11.8-1.9l.4 2c-4 .8-8 1.4-12 2Z" fill="#FFC328"/>
    <path d="M296 197.4v-2c6.3 0 12.8-.1 19.1-.7l.2 2c-6.4.6-13 .7-19.4.7Z" fill="#2382D2"/>
    <path d="M202.7 148.8a1 1 0 0 0 .8-.4 1 1 0 0 0 .2-.7c0-.2 0-.3-.2-.4a23.9 23.9 0 0 0-6.8-7.2c-1.4-1-2.7-2.2-4-3.4-3.4-3.3-5.5-7.7-7.6-12l-.3-.4c-.3-.7-.3-1.1-.2-1.2a.5.5 0 0 1 .4-.2c.5.4.8.9 1.1 1.4l.7.8c.2.2.4.3.7.3a1 1 0 0 0 1-1c0-.2 0-.4-.2-.6l-.3-.5a47 47 0 0 1-3.5-7l.3-.6c.2-.1.3-.2.8 0a1 1 0 0 0 1.3-1.3l-.1-.3a1.1 1.1 0 0 1 .2-1.3c.7-.5 1.8.8 2 1l2.2 2.9a1 1 0 0 0 1.8-1l-.7-1.2-.5-1.1v-.3s-.2-.4 0-.5c.2 0 .6 0 1 .3.4.4.8.8 1 1.3l3.2 4.4a50.5 50.5 0 0 1 4.8 7.2l.4.4a1 1 0 0 0 1.7-.7l.1-1.8c.2-1 .2-2.1-.1-3.1-.2-.8-.4-1.5-.8-2.1l-.6-2.1c0-.2.3-.2.5-.2 1.1.4 1.6 1.5 2.3 3l.5 1c1.3 2.4 2.7 5 2.6 7.8 0 1.5.1 3 .6 4.5a11 11 0 0 0 2.2 3.4l1 1.3a1 1 0 0 0 1.4.2 1 1 0 0 0 .3-1.1l-.1-.4c-.4-.4-.8-.8-1-1.2a9.4 9.4 0 0 1-1.9-2.8c-.4-1.3-.5-2.5-.5-3.8.1-3.3-1.5-6.3-2.8-8.8l-.4-1c-.8-1.6-1.6-3.3-3.6-4a2.7 2.7 0 0 0-2.2.4 2 2 0 0 0-.9 1.8c.1 1 .4 2 .9 2.8a8.3 8.3 0 0 1 .8 3.1c-1-1.6-2.3-3.3-3.6-5l-3-4.3c-.4-.6-.9-1.2-1.5-1.6a2.8 2.8 0 0 0-3.4-.5l-.8.8c-1.3-1.2-2.8-1.5-4-.7a3 3 0 0 0-1.2 2.6c-.4 0-.8.3-1.1.5a3.1 3.1 0 0 0-.9 3.6c.5 1 1 2.2 1.7 3.3-.5 0-.9.3-1.2.6-.4.4-1.1 1.6-.1 3.5l.2.5c2.2 4.4 4.4 9 8 12.4 1.3 1.3 2.7 2.5 4.2 3.6 2.4 1.9 4.7 3.7 6.3 6.6a1 1 0 0 0 .9.5Z" fill="#000"/>
    <path d="m348.3 189.9-.8-1.9c2-.8 4-1.7 5.8-2.8a25 25 0 0 0 5-3.7 14.4 14.4 0 0 0 4-6.5c0-.4 0-1 .2-1.4V172l-.2-1.5 2-.4.2 1.8v1.8l-.3 1.8a16.2 16.2 0 0 1-4.5 7.4 44.3 44.3 0 0 1-11.4 7v-.1Z" fill="#4BC3C3"/>
    <path d="m364.3 170.3-2 .3c-.4-2.2-1.6-4.3-3.2-6-1.7-1.6-3.8-3-6-3.7l.7-2c2.5 1 4.8 2.4 6.7 4.3 2 2 3.3 4.4 3.8 7Z" fill="#fff"/>
    <path d="m353.9 159-.8 1.8a29.3 29.3 0 0 0-11.5-1.8v-2a40.3 40.3 0 0 1 12.3 2Z" fill="#96CD32"/>
    <path d="m254.9 193 .4-2c13.3 3.2 27 4.3 40.6 4.3v2a176 176 0 0 1-41-4.3Z" fill="#fff"/>
    <path d="m342.8 161.4.5-.1a1 1 0 0 0 .4-1.4 40.3 40.3 0 0 0-8.6-10.7 1 1 0 0 0-1.3.7 1 1 0 0 0 .3 1 36.1 36.1 0 0 1 8.3 10.4l.4.1Z" fill="#000"/>
    <path d="M110.9 119.5c.9-2.4 4.3-3.8 6.8-4.2 3.5-.6 9.9-3.2 14-3.7 1.6-.1 3.3 1.3 2.5 2.8-1 1.9-6.8 2.2-7.8 3.8 5.6 1.3 16.1-.4 21.7-2 3.7-1 5.3 1.8 2.4 3.6-.2.1-4.7 2.6-5.7 3.3-2 1.2-4.1 2.1-6.3 2.8-7.2 2.3-12.3 2.5-19.4 4.8" fill="#fff"/>
    <path d="M119.1 131.7h.3a92 92 0 0 1 9.6-2.4c3.3-.6 6.6-1.5 9.8-2.5a31 31 0 0 0 6.7-2.9l5-3 .6-.2c2-1.3 2.2-3 1.7-4-.5-1.2-2.3-2.1-5-1.4a64.2 64.2 0 0 1-18 2.3l.6-.2c2.1-.6 4-1.2 4.8-2.6a2.6 2.6 0 0 0-.2-2.7 3.7 3.7 0 0 0-3.3-1.5c-2.9.5-5.7 1.2-8.4 2.1-1.9.7-3.8 1.2-5.7 1.6-3 .5-6.6 2.2-7.7 4.8a1 1 0 1 0 2 .7c.6-1.8 3.5-3.1 6-3.5 2-.4 4-1 6-1.6 2.6-1 5.3-1.6 8-2a1.7 1.7 0 0 1 1.5.6.6.6 0 0 1 0 .6c-.3.6-2.3 1.2-3.6 1.6-1.9.6-3.5 1-4.2 2.1a1 1 0 0 0 .6 1.5c5.8 1.4 16.5-.2 22.2-1.8 1.5-.5 2.4-.1 2.6.3.2.4-.1.8-1 1.4l-.5.3a69.3 69.3 0 0 0-5.2 3c-2 1.1-4 2-6 2.7a89 89 0 0 1-9.6 2.3c-3.4.7-6.6 1.5-9.9 2.5a1 1 0 0 0-.6 1.2 1 1 0 0 0 1 .7Z" fill="#000"/>
    <path d="M68.5 122.3c-3.2 33.6 31.8-3.8 41.3-6.2a40.2 40.2 0 0 0 15.3 19.7c-8 7.9-14.3 13.3-21.3 17.9" fill="#1423DC"/>
    <path d="M103.8 154.7c.2 0 .4 0 .6-.2a137.8 137.8 0 0 0 21.7-18.4 1 1 0 0 0-.4-1.2 39.4 39.4 0 0 1-15-19.2 1 1 0 0 0-1.2-.5c-2.8.7-7.4 4-12.7 7.9-8.3 6-19.8 14.4-24.7 11.6-2.4-1.4-3.2-5.5-2.6-12.3a1 1 0 0 0-.9-1 1 1 0 0 0-1 .8c-.8 7.7.4 12.4 3.5 14.2 6 3.4 17.1-4.6 26.9-11.7 4.4-3.3 8.6-6.3 11.2-7.3a41 41 0 0 0 14.3 18.5 132.7 132.7 0 0 1-20.7 17.5 1 1 0 0 0 .4 1.2c.2 0 .4.2.6.1Z" fill="#000"/>
    <path d="M118.3 143.2a1 1 0 0 0 .6-1.9 34 34 0 0 1-10.4-10.6 1 1 0 0 0-1.8 1 35.6 35.6 0 0 0 11.6 11.5ZM198.5 134.3a1 1 0 0 0 1-.8c.3-1.4.8-2.8 1.6-4l.2-.3a1 1 0 0 0-.4-1.4 1 1 0 0 0-1.4.4l-.2.3c-.8 1.4-1.5 3-1.8 4.6a1 1 0 0 0 .8 1.2h.2Z" fill="#000"/>
  </g>
  <defs>
    <clipPath id="a">
      <path fill="#fff" transform="matrix(-1 0 0 1 371.5 0)" d="M0 0h371.5v256.9H0z"/>
    </clipPath>
  </defs>
</svg>
