<svg xmlns="http://www.w3.org/2000/svg" viewBox="0 0 339 340.8">
  <defs>
    <style>
      .cls-1{fill:#1423dc}.cls-2{fill:#434fe3}.cls-3{fill:#4bc3c3}.cls-4{fill:#78d2d2}.cls-5{fill:#fff}.cls-6{fill:#96cd32}.cls-7{fill:#ffc328}.cls-8{fill:#41a57d}.cls-9{fill:#2382d2}.cls-10{fill:#d0d3f8}
    </style>
  </defs>
  <g id="Calque_2" data-name="Calque 2">
    <g id="Calque_2-2" data-name="Calque 2">
      <path class="cls-1" d="m127.3 212.7 3.8-1a5.8 5.8 0 0 1 3.2 0l3.5 1.1a5.8 5.8 0 0 0 3.7 0l8.4-3a5.8 5.8 0 0 1 3.4-.2l5.6 1.4a5.8 5.8 0 0 1 4 3.4l1.6 4a5.8 5.8 0 0 1-2.5 7.2l-3.3 1.9a5.8 5.8 0 0 1-6-.2l-1-.6a5.8 5.8 0 0 0-8 1.6 5.8 5.8 0 0 1-4.7 2.6h-8.2a5.8 5.8 0 0 1-5.6-4.2l-2-6.9a5.8 5.8 0 0 1 4.1-7.2Z"/>
      <circle class="cls-1" cx="265.7" cy="85.2" r="41.2"/>
      <path class="cls-1" d="m142 339.7 21.8-51.3h87.1l-21.8 51.3"/>
      <path class="cls-2" d="M127 219.6s.6 10.7 9 10.3c6.9-.3 7.6-4.3 7.6-4.3s-12.1 4.3-13.3-9.3Z"/>
      <path class="cls-3" d="M245.3 171.6c-4.9 23.4-19 49.2-45 49.2-13.6 0-25.4-6.6-42-9.6 8.3 8.1 5.8 14.5-1.2 14.5s-12-7.7-12-7.7c.3 4-1 11.9-9 11.9s-9.1-8.1-9.1-11.1c0 0-9.5 6.3-22.6-1.3-35.6 15.2-57 50.5-57 81 0 19.2 5.2 32.5 11.4 41.3h31.7l11.4-13.6s-19.1-9.8-19.1-30c0-16.6 8.4-33.4 28.3-39 0 0 12.3 26.4 7.8 69.2 13.2 2.5 28 1.8 28 1.8l16.8-39.8h20.1c2.4-9.2 4.4-18 4.4-25.6a26.7 26.7 0 0 0-.5-5c68 12.8 91.6-50.4 93.6-79.4Z"/>
      <path class="cls-4" d="M198 259.1c-.7-8.8-7.4-21-13.8-27.2l-9.8-.3s10.5 13.2 13.2 25.4Z"/>
      <path d="M118.1 222.2c-6.4 0-11.6-2-14.3-4a1 1 0 0 1 1.1-1.6c2.2 1.5 7.8 4 15 3.5s17.7-9.1 18.1-21.6c.4-13.1-12.2-21.6-12.3-21.7a1 1 0 0 1-.3-1.4 1 1 0 0 1 1.4-.3c.6.4 13.6 9.2 13.2 23.4-.4 13.9-11.9 23.1-20 23.6h-1.9Z"/>
      <path class="cls-4" d="m255.5 173.5-10.2-2c-4.5 21.9-17.2 45.8-40 49a43.9 43.9 0 0 0 5.6.3c25.3 0 39.4-24.4 44.6-47.3ZM109.7 220a30.5 30.5 0 0 1-5.4-2.5c-35.5 15.2-57 50.5-57 81 0 19.2 5.3 32.5 11.4 41.3h12.7a70 70 0 0 1-13.5-41.3c0-29 19.5-62.2 51.8-78.6ZM120.9 254.5c-8.2 1-11 2-11 2l2.7 4.5c3.1 8.7 9.8 32 6.3 65.5 13.2 2.4 28 1.7 28 1.7a121.6 121.6 0 0 1-17.3-1.7c4.4-43-8.7-72-8.7-72Z"/>
      <path class="cls-5" d="M283.3 140.8c-1.1-1.4-2.8-3.8-7.5-1a115 115 0 0 0-16.9 14.9l5.8 2.4 19.7-13.8Z"/>
      <path d="M264.7 158.1a1 1 0 0 1-.4 0l-5.7-2.5a1 1 0 0 1-.6-.7 1 1 0 0 1 .2-.9c.4-.4 10.2-10.7 17.1-15 5.4-3.3 7.6-.4 8.7 1v.2a1 1 0 0 1 .2.1l1.2 2.5a1 1 0 0 1-.4 1.3l-19.8 13.8a1 1 0 0 1-.5.2Zm-4-3.8 3.8 1.7 18.7-13-.8-1.7c-1-1.3-2.2-2.9-6-.6-5.5 3.4-13 10.9-15.7 13.6Z"/>
      <path class="cls-5" d="M265.5 155.1s12-10.6 17.3-14c4.7-3 6.5-.1 7.7 1.2l-13 11.7Z"/>
      <path d="M265.5 156.1a1 1 0 0 1-.7-1.7c.5-.4 12.2-10.8 17.5-14.1 5.1-3.3 7.6-.3 8.7 1.1l.2.3a1 1 0 0 1 0 1.4l-13 11.6a1 1 0 0 1-.6.3l-12 1.1Zm21-15.3a6.1 6.1 0 0 0-3.1 1.2c-3.8 2.3-11.2 8.6-15 11.8l8.7-.8 12-10.8a3.3 3.3 0 0 0-2.6-1.4Z"/>
      <path class="cls-5" d="M271.7 154c-12.4 2.7-14.3 1.3-20.6-3.4s-10.8-4.9-13-3.5c-1.5 1.1-2.4 4 1 6.7l9.5 7.2c1.5 3.2 1.1 7.4.7 11.3l24.3 4.7a25.3 25.3 0 0 1 2.7-11.4s5.2-2.2 13-10.2c7.4-7.5 8.4-10.5 6.3-12.7s-4.3-1.4-9.8 3l-9 7.4s-12.3 1.1-16.7 8"/>
      <path d="M273.6 178h-.2l-24.3-4.7a1 1 0 0 1-.8-1c.4-4.1.7-7.8-.5-10.6-1-.9-6-4.6-9.3-7-2.3-1.8-2.8-3.7-2.8-4.9a4.3 4.3 0 0 1 2-3.4c3-2 8.2-.8 14 3.5 6.1 4.5 7.8 5.8 19.6 3.3a36.4 36.4 0 0 1 5-1l8.9-7.3c4.6-3.8 8.2-6.1 11.2-3s.1 7.6-6.4 14.2c-6.8 7-11.7 9.6-13 10.2a23.3 23.3 0 0 0-2.4 10v.8a1 1 0 0 1-.4.7 1 1 0 0 1-.6.2Zm-23.2-6.5 22.2 4.3a24.5 24.5 0 0 1 2.8-10.7 1 1 0 0 1 .5-.5s5.2-2.2 12.7-9.9c8-8.2 7.5-10 6.3-11.4-1.4-1.4-2.8-1.3-8.4 3.2l-9.1 7.4a1 1 0 0 1-.6.3c-.1 0-11.7 1.1-15.9 7.6a1 1 0 0 1-1.4.3 1 1 0 0 1-.3-1.4 14.6 14.6 0 0 1 4.6-4.3c-6.2.3-8.6-1.4-13.3-5-6-4.3-10-4.6-11.8-3.4a2.4 2.4 0 0 0-1 1.9 4.1 4.1 0 0 0 2 3.2l9.5 7.1a1.1 1.1 0 0 1 .4.4c1.3 3.1 1.2 6.8.8 10.9Z"/>
      <path d="M90.5 340.8H58.7a1 1 0 0 1-.8-.4 72.2 72.2 0 0 1-11.6-42c0-33 24.2-67.5 57.6-81.9a1 1 0 0 1 1 0c5.1 3 10.4 4.2 15.4 3.5a16.4 16.4 0 0 0 6.1-2 1 1 0 0 1 1 0 1 1 0 0 1 .5.8c0 1.7.4 10.1 8.2 10.1a7.2 7.2 0 0 0 5.4-2.1c2.2-2.2 2.8-6 2.6-8.7a1 1 0 0 1 .7-1 1 1 0 0 1 1.2.4s4.7 7.2 11 7.2c2.7 0 4.5-1 5.2-2.6 1-2.5-.7-6.3-4.7-10.1a1 1 0 0 1-.2-1.2 1 1 0 0 1 1-.5 155.8 155.8 0 0 1 19 4.9c7.8 2.4 15.1 4.7 23 4.7 25 0 39.2-25 44-48.5a1 1 0 0 1 1.2-.8l36 6.9a1 1 0 0 1 .8 1c-1.1 16.2-9.6 48.6-34.4 67.9A72 72 0 0 1 189 259a28 28 0 0 1 .3 3.8c0 8-2.2 17.2-4.5 25.8a1 1 0 0 1-1 .8h-19.4l-16.6 39.2a1 1 0 0 1-.9.6c-.1 0-15 .6-28.1-1.8a1 1 0 0 1-.8-1.1c3.3-32.8-3.2-58.3-7.4-68-19.8 6-26.8 23.3-26.8 37.7 0 19.5 18.4 29 18.5 29.2a1 1 0 0 1 .6.7 1 1 0 0 1-.3.8l-11.4 13.8a1 1 0 0 1-.7.3Zm-31.2-2H90l10.4-12.4c-4.2-2.5-18.6-12.5-18.6-30.3 0-15.4 7.6-34 29-40a1 1 0 0 1 1.3.6c0 .3 12 26.8 8 68.9a141.3 141.3 0 0 0 26.1 1.6l16.6-39.2a1 1 0 0 1 1-.6H183c2-8 4.1-17 4.1-24.6 0-14-13.4-29.4-13.5-29.5a1 1 0 0 1 1.5-1.4 64 64 0 0 1 13.4 25c22.7 4.2 42.2 0 58-12.1 23.9-18.5 32.3-49.5 33.6-65.5l-34.1-6.5c-5.2 23.9-19.9 49-45.9 49-8 0-15.6-2.3-23.5-4.7-5-1.6-10-3.1-15.7-4.3 3 3.7 4.2 7.2 3 10-1 2.4-3.5 3.8-7 3.8-5 0-8.8-3.4-11-5.8a12.7 12.7 0 0 1-3 7.3 9.1 9.1 0 0 1-7 2.8c-6.7 0-9.5-5.3-10-10.5-3.1 1.5-11.2 4-21.7-1.8-36.8 16-56 52.2-56 79.9 0 16 3.7 29.6 11 40.3Z"/>
      <path class="cls-2" d="m154.1 339.7 21.7-51.3h-12L142 339.7h12.1z"/>
      <path class="cls-5" d="M118 333.3s-7-2.5-11.4-.7c-3.6 1.5-5.5 1-8.8-1.5l-7 8.7h23Z"/>
      <path d="M113.9 340.8H90.8a1 1 0 0 1-1-.5 1 1 0 0 1 .2-1l7-8.8a1 1 0 0 1 1.4-.2c3.2 2.4 4.6 2.7 7.8 1.3 4.7-1.9 11.8.7 12.1.8a1 1 0 0 1 .5 1.4l-4 6.6a1 1 0 0 1-1 .4Zm-21-2h20.4l3.1-5c-2-.5-6.5-1.5-9.4-.3-3.6 1.5-5.8 1.3-9-1Z"/>
      <path d="M312.7 340.8H1a1 1 0 0 1 0-2h311.7a1 1 0 0 1 0 2Z"/>
      <path d="M118.7 325.8s-3.6 1.8-9 13.8H142l5-11.9a100.5 100.5 0 0 1-28.3-2Z"/>
      <path class="cls-6" d="m243.3 182.1 24.2 4.7"/>
      <path d="M267.5 187.8h-.2l-24.2-4.7a1 1 0 1 1 .4-2l24.2 4.7a1 1 0 0 1-.2 2Z"/>
      <path class="cls-6" d="m93.3 320.2-8.9 11.2"/>
      <path d="M84.4 332.4a1 1 0 0 1-.6-.3 1 1 0 0 1-.2-1.4l8.9-11.2a1 1 0 0 1 1.4-.1 1 1 0 0 1 .1 1.4L85.2 332a1 1 0 0 1-.8.4Z"/>
      <path class="cls-2" d="M231.3 78.4a41 41 0 0 1 8.9-25.5 41.2 41.2 0 1 0 57.9 57.9 41.2 41.2 0 0 1-66.8-32.4Z"/>
      <path class="cls-7" d="M278.2 124.5v13.9a12.5 12.5 0 0 1-12.5 12.5 12.5 12.5 0 0 1-12.4-12.5v-13.9a41.6 41.6 0 0 0 24.9 0Z"/>
      <path d="M265.7 151.8a13.5 13.5 0 0 1-13.4-13.4v-13.9a1 1 0 0 1 .4-.8 1 1 0 0 1 .9-.1 40.5 40.5 0 0 0 24.3 0 1 1 0 0 1 .9 0 1 1 0 0 1 .4 1v13.8a13.5 13.5 0 0 1-13.5 13.4Zm-11.4-26v12.6a11.5 11.5 0 1 0 22.9 0v-12.6a42.6 42.6 0 0 1-23 0Z"/>
      <path class="cls-5" d="M215.4 73.7h-.2l-22-5.2a1 1 0 0 1-.8-1.2 1 1 0 0 1 1.2-.8l22 5.2a1 1 0 0 1-.2 2ZM230 48.5a1 1 0 0 1-.8-.3l-18.4-19a1 1 0 0 1 0-1.4 1 1 0 0 1 1.4 0l18.4 19a1 1 0 0 1 0 1.4 1 1 0 0 1-.7.3ZM256 35.3a1 1 0 0 1-1-.8l-6.8-33.3a1 1 0 0 1 2-.4l6.8 33.3a1 1 0 0 1-.8 1.1.7.7 0 0 1-.3 0ZM285 38.1a1 1 0 0 1-.4 0 1 1 0 0 1-.5-1.3L294.5 10a1 1 0 0 1 1.8.7L286 37.5a1 1 0 0 1-.9.6ZM307.9 56.3a1 1 0 0 1-.9-.4 1 1 0 0 1 .3-1.4L325.6 41a1 1 0 0 1 1.1 1.6l-18.3 13.4a1 1 0 0 1-.5.2ZM265.7 127.4A42.2 42.2 0 1 1 308 85.2a42.2 42.2 0 0 1-42.2 42.2Zm0-82.4A40.2 40.2 0 1 0 306 85.2 40.3 40.3 0 0 0 265.7 45Z"/>
      <path class="cls-2" d="M291.9 61.3c6.2 6.8 6.6 14 4.4 18.5-2.4 5-5.7-4.5-12-11.3s-15.4-10.9-10.5-14c4.3-2.8 11.9 0 18 6.8Z"/>
      <path d="M229.1 340.7a1 1 0 0 1-.4-.1 1 1 0 0 1-.5-1.3l21.1-49.9h-84.9L143 340.1a1 1 0 0 1-1.8-.8l21.7-51.3a1 1 0 0 1 1-.6h87a1 1 0 0 1 .9.4 1 1 0 0 1 0 1L230 340a1 1 0 0 1-.9.6Z"/>
      <path class="cls-3" d="m339 77.9-1-1.7c-4.5 2.8-8.6 5.8-12.9 8.6s-8.6 5.6-13 8.2l1 1.7c4.5-2.5 8.9-5.3 13.2-8.2s8.4-5.8 12.7-8.6Z"/>
      <path class="cls-8" d="m313 94.7-1-1.7a129 129 0 0 1-6.3 3.3l1 1.9 6.4-3.5Z"/>
      <path class="cls-6" d="m306.6 98.2-.9-1.9a70.2 70.2 0 0 1-9.8 4 26.4 26.4 0 0 1-10.2 1.5l-.2 2a28.4 28.4 0 0 0 11-1.5 72 72 0 0 0 10.1-4.1Z"/>
      <path class="cls-8" d="m263 104 .3-2a18.1 18.1 0 0 1-12.2-6.4l-1.6 1.3a20.1 20.1 0 0 0 13.6 7.1Z"/>
      <path class="cls-5" d="m281.3 96.3-1.6-1.1a15.6 15.6 0 0 1-5 4.6l1 1.7a17.5 17.5 0 0 0 5.6-5.2Z"/>
      <path class="cls-7" d="m275.7 101.5-1-1.7a16.8 16.8 0 0 1-5.5 2 22 22 0 0 1-5.9.1l-.2 2a24 24 0 0 0 6.5-.1 18.7 18.7 0 0 0 6.1-2.3Z"/>
      <path class="cls-9" d="m284.4 76.3-2 .7a19.7 19.7 0 0 1 .6 9.4 23.5 23.5 0 0 1-1.2 4.6 20.7 20.7 0 0 1-2.1 4.2l1.6 1.1a21.8 21.8 0 0 0 2.4-4.6 25.9 25.9 0 0 0 1.3-5 21.6 21.6 0 0 0-.6-10.4Z"/>
      <path class="cls-3" d="m249.5 96.8 1.6-1.2a18.7 18.7 0 0 1-4-12 15.8 15.8 0 0 1 1.1-6.2 6 6 0 0 1 1.6-2.3 2 2 0 0 1 2.1-.4l.9-1.9a3.8 3.8 0 0 0-2.3-.2 4.2 4.2 0 0 0-2 1 8 8 0 0 0-2.2 3 18 18 0 0 0-1.3 7 20.8 20.8 0 0 0 4.5 13.2Z"/>
      <path class="cls-5" d="m252.8 72.8-.9 1.9a4.6 4.6 0 0 1 2 2.4 14.5 14.5 0 0 1 1 3.4 28 28 0 0 1 .3 7.5l2 .2a30.3 30.3 0 0 0-.3-8 16.2 16.2 0 0 0-1.2-4 6.6 6.6 0 0 0-3-3.4Z"/>
      <path class="cls-6" d="m257.2 88.2-2-.2v1.5l-.3 1.6-.6 3-1.5 6 2 .5 1.5-6c.3-1 .4-2.2.6-3.2l.2-1.6.1-1.6Z"/>
      <path class="cls-5" d="m285.5 103.8.2-2a10.7 10.7 0 0 1-4.6-1.4 9.4 9.4 0 0 1-3.2-3.5 21.7 21.7 0 0 1-2.3-9.8 35.3 35.3 0 0 1 .2-5.1 17.2 17.2 0 0 1 1.2-5 7 7 0 0 1 1.2-2 2.3 2.3 0 0 1 1.6-.8 2 2 0 0 1 1.5.8 6.5 6.5 0 0 1 1.2 2l1.9-.7a8.2 8.2 0 0 0-1.5-2.6 4 4 0 0 0-3.1-1.4 4.3 4.3 0 0 0-3 1.4 8.7 8.7 0 0 0-1.6 2.6 19 19 0 0 0-1.4 5.4 37 37 0 0 0-.2 5.4c.2 3.6.7 7.4 2.5 10.8a11.5 11.5 0 0 0 4 4.1 12.7 12.7 0 0 0 5.4 1.8Z"/>
      <path class="cls-3" d="m254.7 100.6-2-.6a172.6 172.6 0 0 1-11.8 28.3l1.8.9a174.2 174.2 0 0 0 12-28.6Z"/>
      <path class="cls-8" d="m242.7 129.2-1.8-1-3.4 6.5 1.8 1 3.4-6.5Z"/>
      <path class="cls-6" d="m239.3 135.6-1.8-1c-3.4 6.4-7 12.5-10.8 18.6l1.7 1c3.8-6 7.5-12.2 10.9-18.6Z"/>
      <path class="cls-8" d="m178 219.4-1.4-1.4-5.2 5.3-5.3 5.2 1.4 1.4 5.4-5.2 5.2-5.3Z"/>
      <path class="cls-5" d="m191.4 204.7-1.6-1.3-4.7 5.5 1.5 1.3 4.8-5.5z"/>
      <path class="cls-7" d="M186.6 210.2 185 209c-2.7 3-5.5 6.1-8.4 9l1.5 1.5 8.5-9.2Z"/>
      <path class="cls-9" d="m204 189.3-1.6-1.3-6.2 7.8-6.4 7.6 1.6 1.3 6.4-7.6c2.2-2.6 4.1-5.2 6.2-7.8Z"/>
      <path class="cls-5" d="m167.5 230-1.4-1.6a213 213 0 0 1-20.5 17.4l1.2 1.6a215.2 215.2 0 0 0 20.7-17.5Z"/>
      <path class="cls-5" d="m146.8 247.4-1.3-1.6c-2 1.6-4.1 3-6.3 4.4l-6.5 4.1 1 1.8c2.2-1.4 4.5-2.7 6.6-4.2s4.4-2.9 6.4-4.5Z"/>
      <path class="cls-6" d="m133.7 256-1-1.7-1.3.8-1.4.8-2.7 1.4c-1.8 1-3.7 1.8-5.6 2.6l.8 2c2-1 3.9-1.8 5.7-2.8l2.8-1.5 1.4-.7Z"/>
      <path class="cls-5" d="m228.4 154.3-1.7-1q-11.3 18-24.3 34.7l1.6 1.2q13-16.8 24.4-34.9Z"/>
      <path class="cls-3" d="m122.5 261.8-.8-1.9a89 89 0 0 1-29.5 7.2l.1 2a91.3 91.3 0 0 0 30.2-7.3Z"/>
      <path class="cls-8" d="m92.3 269.1-.1-2-7.2.3v2c2.4 0 4.9 0 7.3-.3Z"/>
      <path class="cls-6" d="M85 269.4v-2a76.9 76.9 0 0 1-21-2.9l-.6 2a79 79 0 0 0 21.6 2.9Z"/>
      <path class="cls-8" d="m63.9 204.5 1.1 1.7a120.9 120.9 0 0 1 12.6-7.7l-1-1.8a123.6 123.6 0 0 0-12.7 7.8Z"/>
      <path class="cls-5" d="m48.8 217.6 1.5 1.3a69 69 0 0 1 5-5l-1.3-1.6a69.2 69.2 0 0 0-5.2 5.3Z"/>
      <path class="cls-7" d="m54 212.3 1.4 1.5a89 89 0 0 1 9.6-7.6l-1.2-1.7a90 90 0 0 0-9.8 7.8Z"/>
      <path class="cls-9" d="m39 235.2 2 .5a30.2 30.2 0 0 1 3.6-9 49 49 0 0 1 5.7-7.8l-1.5-1.4a51.6 51.6 0 0 0-6 8.2 32.1 32.1 0 0 0-3.8 9.5Z"/>
      <path class="cls-3" d="m76.7 196.7 1 1.8a150.3 150.3 0 0 1 24.8-10.2l-.7-2a152.1 152.1 0 0 0-25 10.4Z"/>
      <path class="cls-5" d="m101.8 186.3.6 2a151.4 151.4 0 0 1 15-4l-.4-2a152 152 0 0 0-15.2 4Z"/>
      <path class="cls-6" d="m117 182.4.4 2c4-.8 8.1-1.5 12.2-2l-.2-2c-4.2.5-8.3 1.2-12.4 2Z"/>
      <path class="cls-5" d="m63.4 266.4.6-1.9c-6.6-2-13.1-5-17.8-10a23.5 23.5 0 0 1-3-4.1 20 20 0 0 1-2-4.7 21 21 0 0 1-.1-10l-2-.4a22.8 22.8 0 0 0 .2 11 22.3 22.3 0 0 0 2.1 5.1 25.3 25.3 0 0 0 3.3 4.4 33.8 33.8 0 0 0 8.7 6.6 52.4 52.4 0 0 0 10 4Z"/>
      <path class="cls-3" d="m129.4 180.4.2 2a118.8 118.8 0 0 1 30.5.1l.3-2a121.2 121.2 0 0 0-31-.1Z"/>
      <path class="cls-8" d="m160.4 180.5-.3 2 7 1.3.5-2c-2.4-.5-4.8-1-7.2-1.3Z"/>
      <path class="cls-6" d="m167.6 181.8-.4 2a79 79 0 0 1 20 7.2l1-1.8a81.5 81.5 0 0 0-20.6-7.4Z"/>
      <path class="cls-8" d="m229.2 256.7-2-.1a64 64 0 0 1-2.8 14.4l2 .6a65.7 65.7 0 0 0 2.8-14.9Z"/>
      <path class="cls-5" d="m227.3 236.8-2 .6.7 3.4.7 3.6 2-.3-.7-3.6Z"/>
      <path class="cls-7" d="m228.7 244-2 .4a62.3 62.3 0 0 1 .4 12.2l2 .1a63.5 63.5 0 0 0-.4-12.6Z"/>
      <path class="cls-9" d="m219 218.4-1.6 1.1a66.1 66.1 0 0 1 7.9 17.9l2-.6a68.2 68.2 0 0 0-8.2-18.4Z"/>
      <path class="cls-3" d="m226.4 271.6-2-.6a76.2 76.2 0 0 1-5 12.3 82.6 82.6 0 0 1-7.1 11.3l1.6 1.2a87.6 87.6 0 0 0 7.3-11.6 78.2 78.2 0 0 0 5.2-12.6Z"/>
      <path class="cls-5" d="m214 295.8-1.7-1.2a96 96 0 0 1-10.1 11.5l1.4 1.5a99.4 99.4 0 0 0 10.3-11.8Z"/>
      <path class="cls-6" d="m203.6 307.6-1.4-1.5a116.2 116.2 0 0 1-9.4 8.1l1.3 1.7a118.6 118.6 0 0 0 9.5-8.3Z"/>
      <path class="cls-5" d="m188.1 189.2-1 1.8a65 65 0 0 1 8.9 5.6 90.4 90.4 0 0 1 8 6.8 85 85 0 0 1 13.3 16.1l1.7-1a86.8 86.8 0 0 0-13.6-16.6 91.2 91.2 0 0 0-8.2-7 67.8 67.8 0 0 0-9-5.7Z"/>
      <path class="cls-2" d="M145.2 217a7.5 7.5 0 0 0 4.7-1.2s5.4 9 11.9 7.7a5.8 5.8 0 0 1-6.4 2.1 19.8 19.8 0 0 1-10.2-8.6Z"/>
      <path class="cls-5" d="M150.6 210.2s-6.1 5.8-16.2 1.7a24 24 0 0 0 4.6-13.4c.4-13.8-12.7-22.6-12.7-22.6v-.2a6 6 0 0 1-3.7 1.3c-2.2 0-6.5-1.6-6.4-8 .1-6 3.7-8 6.3-8a6.3 6.3 0 0 1 4.4 2c13.2-9 17.8-17.7 18.4-21.7 0 0 16.9 5.2 17.8 20.8s-2.2 28.8-11.6 30.5Z"/>
      <path d="M141.5 214.4a19.3 19.3 0 0 1-7.5-1.6 1 1 0 0 1-.5-1.3 1 1 0 0 1 1.3-.5c9.3 3.8 15-1.5 15.1-1.6a1 1 0 0 1 .8-.2c2.5.2 7.5 1 7.7 1a1 1 0 0 1-.3 2s-4.6-.7-7.1-1a15.2 15.2 0 0 1-9.5 3.2Z"/>
      <path class="cls-1" d="M121 178s4.7-2.5 5.9-1.6 9.5 7 11.4 16.1-.6 18.7-8.6 24.5-16.3 4.9-18.7 3 30-17.4 10-42Z"/>
      <path d="M159.6 212.8a1 1 0 0 1-1-.7 1 1 0 0 1 .6-1.2c3.8-1.1 6.3-3.2 7.4-6.3 3.6-9.1-5.3-24-5.4-24.2a1 1 0 0 1 1.7-1c.4.7 9.5 15.9 5.6 26a12.5 12.5 0 0 1-8.7 7.4 1 1 0 0 1-.2 0ZM163.5 157.4a1 1 0 0 1-1-1c.9-12.4-1.4-16.3-3.8-18.4-2-1.7-7.2-3.6-21-3.5a1 1 0 0 1-1-1 1 1 0 0 1 1-1c11.7-.1 19.2 1.2 22.4 4 2.7 2.4 5.4 6.7 4.4 20a1 1 0 0 1-1 1Z"/>
      <ellipse class="cls-10" cx="142" cy="165.5" rx="6" ry="10.3"/>
      <path d="M142 176.7c-4 0-7-5-7-11.2s3-11.3 7-11.3 7 5 7 11.3-3 11.2-7 11.2Zm0-20.5c-2.7 0-5 4.2-5 9.3s2.3 9.2 5 9.2 5-4.2 5-9.2-2.2-9.3-5-9.3ZM121.5 173a1 1 0 0 1-.9-.5 1 1 0 0 1 .3-1.4l2.6-1.9-3.1-3.1a1 1 0 0 1 0-1.4 1 1 0 0 1 1.4 0l4 4a1 1 0 0 1-.1 1.5l-3.7 2.5a1 1 0 0 1-.5.2ZM151 186.8c-7 0-9-5.2-9.1-7a1 1 0 0 1 2-.2s.6 5.3 7.1 5.3a1 1 0 0 1 0 2Z"/>
      <path d="M148.5 165.5a1 1 0 0 1-.7-1.7 4.6 4.6 0 0 1 6.2-.8 1 1 0 1 1-1 1.7 2.6 2.6 0 0 0-3.8.5 1 1 0 0 1-.7.3ZM136 164.6H128a1 1 0 0 1-1-1 1 1 0 0 1 1-1h8.2a1 1 0 0 1 0 2Z"/>
      <path d="M122.5 178a7.3 7.3 0 0 1-5-2.2 9.3 9.3 0 0 1-2.4-6.9c.2-6 4-8.8 7.4-8.8a7.2 7.2 0 0 1 6.5 4.4 1 1 0 0 1-2 .6 5.2 5.2 0 0 0-4.5-3c-2 0-5.3 1.5-5.4 6.9a7.4 7.4 0 0 0 1.8 5.5 5.3 5.3 0 0 0 3.6 1.5 4.8 4.8 0 0 0 3.8-1.7 1 1 0 0 1 1.6 1.1 6.7 6.7 0 0 1-5.4 2.6ZM141.5 156.1a1 1 0 0 1-.8-1.5c1.4-2.1 3.5-2.7 6-1.8h.2a1 1 0 0 1-.6 1.9h-.2c-1.3-.5-2.6-.7-3.8 1a1 1 0 0 1-.8.4ZM159 155a1 1 0 0 1-.5-.2c-3.1-2-4.2-1.3-5-.8a4.5 4.5 0 0 1-.4.2 1 1 0 1 1-1-1.7l.3-.2c1-.6 3-1.8 7 .8a1 1 0 0 1-.4 1.8Z"/>
      <path d="M145.3 194.8a1 1 0 0 1 0-2c12.9 0 16.4-5.9 17.4-28.5.3-7.8-4.5-13.5-8.5-17a29.2 29.2 0 0 0-14.8-6.9 1 1 0 0 1-1-1 1 1 0 0 1 1-1c9.3.7 26 11 25.3 26-.5 12.1-1.8 18.9-4.3 23.3-2.9 5-7.6 7.1-15.2 7.1ZM118.1 222.2c-6.4 0-11.6-2-14.3-4a1 1 0 0 1 1.1-1.6c2.2 1.5 7.8 4 15 3.5s17.7-9.1 18.1-21.6c.4-13.1-12.2-21.6-12.3-21.7a1 1 0 0 1-.3-1.4 1 1 0 0 1 1.4-.3c.6.4 13.6 9.2 13.2 23.4-.4 13.9-11.9 23.1-20 23.6h-1.9Z"/>
      <ellipse class="cls-10" cx="159.6" cy="164.4" rx="6" ry="10.4"/>
      <path d="M159.6 175.8c-4 0-7-5-7-11.4s3-11.5 7-11.5 7 5 7 11.5-3 11.4-7 11.4Zm0-20.9c-2.8 0-5 4.3-5 9.5s2.2 9.4 5 9.4 5-4.3 5-9.4-2.3-9.5-5-9.5Z"/>
      <path class="cls-5" d="M150.6 158c0 2.1 0 9 1.7 13l4.4 1a24.6 24.6 0 0 1-3 4"/>
      <path d="M153.6 177a1 1 0 0 1-.7-.4 1 1 0 0 1 0-1.4 16.4 16.4 0 0 0 2.1-2.6l-3-.6a1 1 0 0 1-.7-.6c-1.5-4-1.8-10-1.8-13.4a1 1 0 1 1 2 0c0 3 .2 8.5 1.5 12.2l3.9.7a1 1 0 0 1 .7.6 1 1 0 0 1 0 1 25.6 25.6 0 0 1-3.3 4.2 1 1 0 0 1-.7.2ZM150 193.5l.2 16.7 8.7 1s6.4-1.5 6-11a31 31 0 0 0-4-15.7 13.5 13.5 0 0 1-10.9 9Z"/>
      <path d="M141.2 140c-3 11.4-14 18.6-18 21-2.3 0-8 1.4-7 9.3s7.4 6.6 7.4 6.6c2.5 1.2 18.8 18 7 33.6-12.4 16.5-26.2 7-26.2 7-2.8 1.1-9 4.4-9 4.4s-4.9-2.5-5-9.5c-.5-15.2 21.8-23.8 21.8-23.8l-5.6-32.3a17.3 17.3 0 0 1 1.4-10.8c5-9.8 17.3-12.7 27.6-13 16.6-.4 23.3 1.3 23.3 18.2 0 0-8.3-9.7-17.7-10.7ZM136 230.9c-4.6 0-10-3.2-10-12.1a1 1 0 0 1 2 0c0 1.7.4 10 8 10a7.2 7.2 0 0 0 5.5-2c2.2-2.3 2.8-6 2.7-8.8a1 1 0 0 1 .6-1 1 1 0 0 1 1.2.4c0 .1 4.7 7.2 11 7.2 2.7 0 4.5-1 5.2-2.6 1-2.5-.7-6.3-4.7-10a1 1 0 1 1 1.4-1.5c4.6 4.5 6.5 9 5.2 12.3-1 2.4-3.6 3.8-7 3.8-5 0-9-3.4-11-5.8a12.7 12.7 0 0 1-3 7.3 9.1 9.1 0 0 1-7 2.8ZM281.2 132.7h-31a1 1 0 0 1 0-2h31a1 1 0 0 1 0 2ZM278.2 139.3h-25a1 1 0 0 1 0-2h25a1 1 0 0 1 0 2ZM276.2 146h-21a1 1 0 1 1 0-2h21a1 1 0 0 1 0 2Z"/>
      <path d="M126.9 164a1 1 0 0 1-.6-1.8c16-11 17.8-20.1 18-21.1a1 1 0 1 1 2 .3c-.8 4.9-6.2 13.7-18.8 22.4a1 1 0 0 1-.6.2Z"/>
    </g>
  </g>
</svg>
