<svg width="25" height="25" viewBox="0 0 25 25" fill="none" xmlns="http://www.w3.org/2000/svg">
<path d="M19.9483 10.2845C19.8085 9.00214 19.3318 7.81837 18.6166 6.81546L20.6142 4.81785L20.0305 4.23419L18.0904 6.16603C17.2519 5.22888 16.175 4.50547 14.9502 4.09444L15.7147 1.82556L14.9337 1.5625L14.1528 3.87249C13.6431 3.76562 13.1252 3.69985 12.5826 3.69985C12.0401 3.69985 11.5222 3.7574 11.0125 3.87249L10.2316 1.5625L9.4506 1.82556L10.2151 4.09444C8.99847 4.50547 7.92157 5.22888 7.07485 6.16603L5.16767 4.24241L4.58401 4.82608L6.58161 6.82368C5.86642 7.82659 5.38963 9.01036 5.24988 10.2928H2.73438V11.1148H5.20055C5.20055 13.2111 6.08016 15.1758 7.61741 16.5733L8.20107 15.9896C6.82001 14.7401 6.02261 12.9809 6.02261 11.1148C6.02261 7.48133 8.97381 4.53013 12.5991 4.53013C16.2244 4.53013 19.1756 7.48133 19.1756 11.1066C19.1756 14.4606 16.6518 17.2227 13.4129 17.6255L14.5802 12.9645L13.7829 12.7672L12.5991 17.4776L11.4153 12.7672L10.6179 12.9645L11.8017 17.6831H9.72188C9.4917 17.6831 9.31085 17.8639 9.31085 18.0941V20.996C9.31085 21.0864 9.33551 21.1686 9.39306 21.2426L10.8974 23.2731C10.9714 23.38 11.0947 23.4375 11.2262 23.4375H13.9637C14.0952 23.4375 14.2185 23.38 14.2925 23.2731L15.7969 21.2426C15.8462 21.1686 15.8791 21.0864 15.8791 20.996V17.7324C18.3124 16.5158 19.9894 14.0003 19.9894 11.1066H22.4556V10.2845H19.9401H19.9483ZM15.0653 20.8645L13.7582 22.6154H11.4318L10.2069 20.9713H13.3965V20.1493H10.1247V18.5051H12.5909C13.454 18.5051 14.2843 18.3572 15.057 18.0859V20.8645H15.0653ZM12.5991 7.81837V6.99631C14.868 6.99631 16.7094 8.83773 16.7094 11.1066H15.8873C15.8873 9.28986 14.4158 7.81837 12.5991 7.81837Z" fill="white"/>
</svg>
