<svg width="25" height="25" viewBox="0 0 25 25" fill="none" xmlns="http://www.w3.org/2000/svg">
<path d="M20.2592 19.0341H18.9279L14.9339 3.81783C14.8849 3.63814 14.7216 3.51562 14.5419 3.51562H10.4581C10.2702 3.51562 10.1069 3.63814 10.0661 3.81783L6.07209 19.0341H4.74077C4.06286 19.0341 3.51562 19.5813 3.51562 20.2592V21.076C3.51562 21.3047 3.69531 21.4844 3.92401 21.4844H21.076C21.3047 21.4844 21.4844 21.3047 21.4844 21.076V20.2592C21.4844 19.5813 20.9371 19.0341 20.2592 19.0341ZM16.5838 13.3168H9.23295V14.1335H16.7962L17.0085 14.9503H7.98331L9.48615 9.23295H15.5138L16.5838 13.3168ZM10.7766 4.33239H14.2315L14.8768 6.78267H10.8746V7.59943H15.0891L15.3015 8.41619H9.69851L10.7685 4.33239H10.7766ZM20.6676 20.6676H4.33239V20.2592C4.33239 20.0305 4.51207 19.8509 4.74077 19.8509H15.767V19.0341H6.91335L7.77095 15.767H17.229L18.0866 19.0341H17.4006V19.8509H20.2592C20.4879 19.8509 20.6676 20.0305 20.6676 20.2592V20.6676Z" fill="white"/>
</svg>
